<svg width="274" height="132" viewBox="0 0 274 132" fill="none" xmlns="http://www.w3.org/2000/svg">
<path d="M263.179 126.02C263.179 122.927 265.498 120.608 268.59 120.608C271.681 120.608 274 122.927 274 126.02C274 129.112 271.681 131.431 268.59 131.431C265.885 131.431 263.179 129.112 263.179 126.02Z" fill="white"/>
<path d="M219.509 126.02C219.509 122.927 221.828 120.608 224.92 120.608C228.011 120.608 230.33 122.927 230.33 126.02C230.33 129.112 228.011 131.431 224.92 131.431C221.828 131.431 219.509 129.112 219.509 126.02Z" fill="white"/>
<path d="M175.453 126.02C175.453 122.927 177.772 120.608 180.863 120.608C183.955 120.608 186.274 122.927 186.274 126.02C186.274 129.112 183.955 131.431 180.863 131.431C177.772 131.431 175.453 129.112 175.453 126.02Z" fill="white"/>
<path d="M131.783 126.02C131.783 122.927 134.102 120.608 137.193 120.608C140.285 120.608 142.604 122.927 142.604 126.02C142.604 129.112 140.285 131.431 137.193 131.431C134.102 131.431 131.783 129.112 131.783 126.02Z" fill="white"/>
<path d="M87.7266 126.02C87.7266 122.927 90.0452 120.608 93.1368 120.608C96.2285 120.608 98.5474 122.927 98.5474 126.02C98.5474 129.112 96.2285 131.431 93.1368 131.431C90.0452 131.431 87.7266 129.112 87.7266 126.02Z" fill="white"/>
<path d="M49.0807 131.431C52.0688 131.431 54.491 129.008 54.491 126.02C54.491 123.031 52.0688 120.608 49.0807 120.608C46.0925 120.608 43.67 123.031 43.67 126.02C43.67 129.008 46.0925 131.431 49.0807 131.431Z" fill="white"/>
<path d="M5.41038 131.431C8.39853 131.431 10.821 129.008 10.821 126.02C10.821 123.031 8.39853 120.608 5.41038 120.608C2.42223 120.608 0 123.031 0 126.02C0 129.008 2.42223 131.431 5.41038 131.431Z" fill="white"/>
<path d="M263.179 85.8171C263.179 82.7246 265.498 80.4053 268.59 80.4053C271.681 80.4053 274 82.7246 274 85.8171C274 88.9096 271.681 91.2289 268.59 91.2289C265.885 91.2289 263.179 88.9096 263.179 85.8171Z" fill="white"/>
<path d="M219.509 85.8171C219.509 82.7246 221.828 80.4053 224.92 80.4053C228.011 80.4053 230.33 82.7246 230.33 85.8171C230.33 88.9096 228.011 91.2289 224.92 91.2289C221.828 91.2289 219.509 88.9096 219.509 85.8171Z" fill="white"/>
<path d="M175.453 85.8171C175.453 82.7246 177.772 80.4053 180.863 80.4053C183.955 80.4053 186.274 82.7246 186.274 85.8171C186.274 88.9096 183.955 91.2289 180.863 91.2289C177.772 91.2289 175.453 88.9096 175.453 85.8171Z" fill="white"/>
<path d="M131.783 85.8171C131.783 82.7246 134.102 80.4053 137.193 80.4053C140.285 80.4053 142.604 82.7246 142.604 85.8171C142.604 88.9096 140.285 91.2289 137.193 91.2289C134.102 91.2289 131.783 88.9096 131.783 85.8171Z" fill="white"/>
<path d="M87.7266 85.8171C87.7266 82.7246 90.0452 80.4053 93.1368 80.4053C96.2285 80.4053 98.5474 82.7246 98.5474 85.8171C98.5474 88.9096 96.2285 91.2289 93.1368 91.2289C90.0452 91.2289 87.7266 88.9096 87.7266 85.8171Z" fill="white"/>
<path d="M44.0564 85.8171C44.0564 82.7246 46.3752 80.4053 49.4669 80.4053C52.5586 80.4053 54.8774 82.7246 54.8774 85.8171C54.8774 88.9096 52.5586 91.2289 49.4669 91.2289C46.3752 91.2289 44.0564 88.9096 44.0564 85.8171Z" fill="white"/>
<path d="M0 85.8171C0 82.7246 2.31865 80.4053 5.41038 80.4053C8.50211 80.4053 10.821 82.7246 10.821 85.8171C10.821 88.9096 8.50211 91.2289 5.41038 91.2289C2.31865 91.2289 0 88.9096 0 85.8171Z" fill="white"/>
<path d="M263.179 45.6145C263.179 42.522 265.498 40.2026 268.59 40.2026C271.681 40.2026 274 42.522 274 45.6145C274 48.707 271.681 51.0264 268.59 51.0264C265.885 51.0264 263.179 48.707 263.179 45.6145Z" fill="white"/>
<path d="M219.509 45.6145C219.509 42.522 221.828 40.2026 224.92 40.2026C228.011 40.2026 230.33 42.522 230.33 45.6145C230.33 48.707 228.011 51.0264 224.92 51.0264C221.828 51.0264 219.509 48.707 219.509 45.6145Z" fill="white"/>
<path d="M175.453 45.6145C175.453 42.522 177.772 40.2026 180.863 40.2026C183.955 40.2026 186.274 42.522 186.274 45.6145C186.274 48.707 183.955 51.0264 180.863 51.0264C177.772 51.0264 175.453 48.707 175.453 45.6145Z" fill="white"/>
<path d="M131.783 45.6145C131.783 42.522 134.102 40.2026 137.193 40.2026C140.285 40.2026 142.604 42.522 142.604 45.6145C142.604 48.707 140.285 51.0264 137.193 51.0264C134.102 51.0264 131.783 48.707 131.783 45.6145Z" fill="white"/>
<path d="M87.7266 45.6145C87.7266 42.522 90.0452 40.2026 93.1368 40.2026C96.2285 40.2026 98.5474 42.522 98.5474 45.6145C98.5474 48.707 96.2285 51.0264 93.1368 51.0264C90.0452 51.0264 87.7266 48.707 87.7266 45.6145Z" fill="white"/>
<path d="M44.0564 45.6145C44.0564 42.522 46.3752 40.2026 49.4669 40.2026C52.5586 40.2026 54.8774 42.522 54.8774 45.6145C54.8774 48.707 52.5586 51.0264 49.4669 51.0264C46.3752 51.0264 44.0564 48.707 44.0564 45.6145Z" fill="white"/>
<path d="M0 45.6145C0 42.522 2.31865 40.2026 5.41038 40.2026C8.50211 40.2026 10.821 42.522 10.821 45.6145C10.821 48.707 8.50211 51.0264 5.41038 51.0264C2.31865 51.0264 0 48.707 0 45.6145Z" fill="white"/>
<path d="M263.179 5.41186C263.179 2.31936 265.498 0 268.59 0C271.681 0 274 2.31936 274 5.41186C274 8.50437 271.681 10.8237 268.59 10.8237C265.885 10.8237 263.179 8.50437 263.179 5.41186Z" fill="white"/>
<path d="M219.509 5.41186C219.509 2.31936 221.828 0 224.92 0C228.011 0 230.33 2.31936 230.33 5.41186C230.33 8.50437 228.011 10.8237 224.92 10.8237C221.828 10.8237 219.509 8.50437 219.509 5.41186Z" fill="white"/>
<path d="M175.453 5.41186C175.453 2.31936 177.772 0 180.863 0C183.955 0 186.274 2.31936 186.274 5.41186C186.274 8.50437 183.955 10.8237 180.863 10.8237C177.772 10.8237 175.453 8.50437 175.453 5.41186Z" fill="white"/>
<path d="M131.783 5.41186C131.783 2.31936 134.102 0 137.193 0C140.285 0 142.604 2.31936 142.604 5.41186C142.604 8.50437 140.285 10.8237 137.193 10.8237C134.102 10.8237 131.783 8.50437 131.783 5.41186Z" fill="white"/>
<path d="M87.7266 5.41186C87.7266 2.31936 90.0452 0 93.1368 0C96.2285 0 98.5474 2.31936 98.5474 5.41186C98.5474 8.50437 96.2285 10.8237 93.1368 10.8237C90.0452 10.8237 87.7266 8.50437 87.7266 5.41186Z" fill="white"/>
<path d="M49.0807 10.8237C52.0688 10.8237 54.491 8.40077 54.491 5.41186C54.491 2.42296 52.0688 0 49.0807 0C46.0925 0 43.67 2.42296 43.67 5.41186C43.67 8.40077 46.0925 10.8237 49.0807 10.8237Z" fill="white"/>
<path d="M5.41038 10.8237C8.39853 10.8237 10.821 8.40077 10.821 5.41186C10.821 2.42296 8.39853 0 5.41038 0C2.42223 0 0 2.42296 0 5.41186C0 8.40077 2.42223 10.8237 5.41038 10.8237Z" fill="white"/>
</svg>
