<svg width="284" height="284" viewBox="0 0 284 284" fill="none" xmlns="http://www.w3.org/2000/svg">
<path d="M141.7 2.19995C179 2.19995 214 16.6999 240.3 43.0999C266.6 69.3999 281.2 104.5 281.2 141.7C281.2 178.9 266.7 214 240.3 240.3C213.9 266.6 178.9 281.2 141.7 281.2C104.4 281.2 69.4 266.7 43.1 240.3C16.8 214 2.20001 178.9 2.20001 141.7C2.20001 104.4 16.7 69.3999 43.1 43.0999C69.4 16.6999 104.4 2.19995 141.7 2.19995ZM141.7 0.199951C63.6 0.199951 0.200012 63.6 0.200012 141.7C0.200012 219.8 63.6 283.2 141.7 283.2C219.8 283.2 283.2 219.8 283.2 141.7C283.2 63.6 219.8 0.199951 141.7 0.199951Z" fill="black"/>
<path d="M141.6 60.1001C186.3 60.1001 222.6 96.4001 222.6 141.1C222.6 185.8 186.3 222.1 141.6 222.1C96.9 222.1 60.6 185.8 60.6 141.1C60.6 96.4001 96.9 60.1001 141.6 60.1001ZM141.6 58.1001C95.8 58.1001 58.6 95.3001 58.6 141.1C58.6 186.9 95.8 224.1 141.6 224.1C187.4 224.1 224.6 186.9 224.6 141.1C224.6 95.3001 187.4 58.1001 141.6 58.1001Z" fill="black"/>
<path d="M119.2 24.7L119.9 27.6C118.4 26.7 116.7 26.4999 115 26.9C113.2 27.3 112 28.3 111.2 29.7C110.4 31.1 110.3 32.7999 110.7 34.5999C111.1 36.3999 112 37.7 113.4 38.5C114.8 39.4 116.3 39.6 118 39.2C119.6 38.8 120.9 37.8 121.9 36.2L122.6 39.2C121.5 40.3 120.1 41.0999 118.4 41.5999C116.1 42.1999 114 41.9 112.1 40.7999C109.9 39.5999 108.6 37.6999 108 35.2999C107.4 32.6999 107.7 30.3999 109 28.2999C110.1 26.4999 111.9 25.3 114.3 24.7C116.3 24.2 117.8 24.2 119.2 24.7Z" fill="black"/>
<path d="M124.8 39.7999L126.3 28L131.4 35.5999L135 27.2L138.7 38.5L136.2 38.7L134.6 33.5L131.8 39.9L127.8 34.0999L127.2 39.5L124.8 39.7999Z" fill="black"/>
<path d="M142.4 29.3C143.5 28.3 144.9 27.8 146.5 27.9C148.1 28 149.4 28.6 150.5 29.7C151.5 30.8 152 32.2 151.9 33.8C151.8 35.4 151.2 36.7 150.1 37.7C149 38.7 147.6 39.2 146 39.1C144.4 39 143.1 38.4 142 37.3C141 36.2 140.5 34.8 140.6 33.2C140.6 31.6 141.2 30.3 142.4 29.3ZM143.9 36C144.5 36.6 145.2 36.9 146.1 36.9C146.9 36.9 147.7 36.7 148.3 36.1C148.9 35.6 149.3 34.7 149.3 33.6C149.3 32.4 149.1 31.6 148.5 31C147.9 30.4 147.2 30.1 146.3 30.1C145.5 30.1 144.7 30.3 144.1 30.9C143.5 31.4 143.1 32.3 143.1 33.4C143.1 34.5 143.3 35.4 143.9 36Z" fill="black"/>
<path d="M156.4 39.7L157.7 31.4L154.6 30.9L154.9 28.7L163.5 30L163.2 32.2L160.1 31.7L158.8 40L156.4 39.7Z" fill="black"/>
<path d="M169.1 31.4L168.8 32.5C169.8 31.8 171 31.6 172.3 32C173.7 32.4 174.7 33.2 175.4 34.4C176.1 35.6 176.2 37.1 175.8 38.7C175.4 40.3 174.5 41.5 173.2 42.2C171.9 42.9 170.6 43.0999 169.4 42.7999C169.1 42.6999 168.9 42.6 168.6 42.5C168.3 42.4 168 42.1 167.6 41.7C167.2 41.3 166.9 40.9 166.7 40.4L165 46.4L162.6 45.7999L166.7 30.7L169.1 31.4ZM171.4 34C170.6 33.8 169.9 33.8999 169.1 34.2999C168.4 34.6999 167.9 35.5 167.6 36.5C167.3 37.4 167.4 38.3 167.7 39C168 39.8 168.7 40.3 169.6 40.5C170.5 40.7 171.2 40.5999 171.9 40.0999C172.6 39.5999 173.1 38.9 173.3 38C173.6 37 173.5 36.1 173.1 35.4C172.7 34.7 172.2 34.2 171.4 34Z" fill="black"/>
<path d="M185.6 44.1999L187.1 46.0999C186.4 46.5999 185.8 46.9999 185.1 47.1999C183.9 47.5999 182.6 47.4999 181.2 46.9999C179.9 46.4999 179 45.5999 178.4 44.2999C177.8 42.9999 177.9 41.4999 178.6 39.8999C179.3 38.2999 180.2 37.1999 181.5 36.5999C182.8 35.9999 184.1 35.9999 185.5 36.5999C187.2 37.2999 188.2 38.3999 188.5 39.8999C188.7 41.0999 188.5 42.3999 187.9 43.7999L187.8 44.1999L180.8 41.2999C180.5 42.0999 180.5 42.8999 180.8 43.5999C181.1 44.2999 181.7 44.7999 182.3 44.9999C182.9 45.1999 183.5 45.2999 184.1 45.0999C184.6 44.9999 185.1 44.5999 185.6 44.1999ZM181.6 39.4999L186.1 41.3999C186.2 40.7999 186.1 40.1999 185.8 39.6999C185.5 39.1999 185.1 38.7999 184.6 38.5999C184.1 38.3999 183.5 38.2999 183 38.4999C182.5 38.6999 182 38.9999 181.6 39.4999Z" fill="black"/>
<path d="M190.2 50.8L194.2 43.4L191.5 41.9L192.6 40L200.2 44.2L199.1 46.1L196.4 44.6L192.4 52L190.2 50.8Z" fill="black"/>
<path d="M202.9 45.8999L204.9 47.2999L202.8 50.3999L204 51.1999C204.4 51.4999 204.7 51.6999 204.9 51.7999C205.1 51.9999 205.3 52.2999 205.6 52.5999C205.9 52.8999 206 53.3999 206.1 53.7999C206.2 54.5999 206 55.3999 205.5 56.0999C204.9 56.9999 204.1 57.5999 203.3 57.6999C202.9 57.7999 202.5 57.6999 202.1 57.5999C201.7 57.4999 201.4 57.3999 201.2 57.1999C201 57.0999 200.7 56.8999 200.3 56.5999L197.1 54.3999L202.9 45.8999ZM200.2 54.2999L201.1 54.8999C201.6 55.1999 202 55.3999 202.3 55.3999C202.7 55.3999 203.1 55.1999 203.4 54.7999C203.7 54.3999 203.7 53.9999 203.6 53.5999C203.5 53.2999 203.2 52.9999 202.7 52.6999L201.8 52.0999L200.2 54.2999Z" fill="black"/>
<path d="M217.7 57.0999L220.7 59.9999C221.5 60.6999 221.9 61.4999 222 62.0999C222.1 62.8999 221.9 63.5999 221.3 64.1999C220.6 64.8999 219.8 65.0999 219 64.7999C219.3 65.2999 219.5 65.7999 219.5 66.2999C219.5 66.9999 219.3 67.6999 218.7 68.2999C218 68.9999 217.2 69.2999 216.2 69.1999C215.4 69.0999 214.7 68.6999 214 67.9999L210.4 64.5999L217.7 57.0999ZM213.5 64.9999L214.8 66.2999C215.2 66.6999 215.6 66.8999 215.9 66.9999C216.3 67.0999 216.7 66.8999 216.9 66.6999C217.2 66.3999 217.3 66.0999 217.2 65.6999C217.1 65.3999 216.9 64.9999 216.5 64.5999L215.1 63.2999L213.5 64.9999ZM216.6 61.7999L217.5 62.6999C217.8 62.9999 218.1 63.1999 218.4 63.1999C218.8 63.2999 219.1 63.1999 219.3 62.8999C219.5 62.5999 219.6 62.3999 219.6 61.9999C219.6 61.7999 219.3 61.4999 219 61.0999L218.1 60.1999L216.6 61.7999Z" fill="black"/>
<path d="M231.5 72.7998L229 74.8998C229.2 74.2998 229.3 73.6998 229.1 72.9998C229 72.3998 228.7 71.7998 228.4 71.3998C227.9 70.6998 227.2 70.3998 226.3 70.2998C225.4 70.1998 224.6 70.4998 223.8 71.1998C223.1 71.7998 222.6 72.4998 222.5 73.3998C222.4 74.2998 222.6 75.0998 223.2 75.7998C224 76.7998 225.1 77.1998 226.6 76.9998L224.1 79.0998C223.1 78.6998 222.3 78.1998 221.6 77.3998C220.4 75.9998 219.9 74.4998 220.1 72.9998C220.2 71.5998 220.9 70.3998 222.2 69.2998C223.5 68.1998 225 67.6998 226.6 67.8998C228 68.0998 229.2 68.7998 230.3 69.9998C230.9 70.7998 231.3 71.7998 231.5 72.7998Z" fill="black"/>
<path d="M232.8 85.5998L233 87.9998C232.2 88.0998 231.4 87.9998 230.7 87.7998C229.4 87.4998 228.4 86.6998 227.6 85.3998C226.9 84.2998 226.6 82.9998 226.8 81.5998C227 80.1998 227.9 78.9998 229.4 77.9998C230.8 77.0998 232.2 76.6998 233.6 76.8998C235 77.0998 236.1 77.8998 236.9 79.1998C237.9 80.6998 238.1 82.1998 237.5 83.5998C237 84.6998 236.1 85.6998 234.8 86.4998L234.5 86.6998L230.3 80.3998C229.6 80.8998 229.1 81.4998 229 82.2998C228.9 83.0998 229.1 83.6998 229.5 84.2998C229.8 84.7998 230.3 85.1998 230.9 85.3998C231.5 85.6998 232.1 85.7998 232.8 85.5998ZM232.1 79.4998L234.8 83.5998C235.2 83.0998 235.5 82.5998 235.5 82.0998C235.6 81.4998 235.4 80.9998 235.1 80.4998C234.8 79.9998 234.3 79.6998 233.8 79.4998C233.3 79.2998 232.7 79.2998 232.1 79.4998Z" fill="black"/>
<path d="M228.4 92.2999L235.2 91.5999L235.5 93.9999L228.5 94.1999L228.4 92.2999Z" fill="black"/>
<path d="M239.5 109.4L243.4 108C243 107.3 242.7 106.6 242.5 106C242.1 104.9 242 103.9 242.3 103.1C242.6 102.3 243.3 101.7 244.4 101.3L247.6 100.2L248.4 102.5L245.7 103.5C245 103.7 244.6 104.1 244.5 104.6C244.4 104.9 244.5 105.3 244.7 105.8C244.9 106.4 245.2 106.9 245.5 107.3L249.6 105.9L250.4 108.2L240.4 111.7L239.5 109.4Z" fill="black"/>
<path d="M241.7 116.8L249.9 114.9L249.2 111.9L251.3 111.4L253.3 119.9L251.1 120.4L250.4 117.4L242.2 119.3L241.7 116.8Z" fill="black"/>
<path d="M252.7 124.3C253.9 125.2 254.6 126.5 254.8 128.1C255 129.7 254.6 131.1 253.7 132.3C252.8 133.5 251.5 134.2 249.9 134.4C248.3 134.6 246.9 134.2 245.7 133.3C244.5 132.4 243.8 131.1 243.6 129.5C243.4 127.9 243.8 126.5 244.7 125.3C245.6 124.1 246.9 123.4 248.5 123.2C250.1 123 251.5 123.4 252.7 124.3ZM246.4 127C245.9 127.7 245.7 128.4 245.8 129.3C245.9 130.1 246.3 130.8 246.9 131.4C247.5 132 248.4 132.2 249.5 132C250.6 131.9 251.5 131.5 252 130.8C252.5 130.1 252.7 129.4 252.6 128.5C252.5 127.7 252.1 127 251.5 126.4C250.9 125.9 250 125.7 248.8 125.8C247.7 125.9 246.9 126.3 246.4 127Z" fill="black"/>
<path d="M244.8 143L248.8 146.6C248.9 146 249.2 145.4 249.7 145C250.3 144.4 251.1 144.2 252 144.3C253 144.4 253.8 144.7 254.4 145.4C255 146.1 255.3 147.2 255.2 148.5L255 152.5L244.4 151.8L244.6 149.4L248.5 149.6V149L244.8 145.9V143ZM250.3 149.6L252.9 149.8L253 148.3C253 147.7 253 147.3 252.8 147C252.6 146.6 252.2 146.4 251.8 146.4C251.3 146.4 251 146.5 250.7 146.8C250.5 147 250.4 147.5 250.4 148.2L250.3 149.6Z" fill="black"/>
<path d="M238.1 159.8L244.1 165L253.6 162.4L252.9 165.3L246.4 166.9L251.5 171.2L250.9 173.9L237.6 162.4L238.1 159.8Z" fill="black"/>
<path d="M240.2 172.4L250.1 179L241 180.2L246.9 187.2L235.2 185.4L236.1 183.1L241.5 184L237 178.6L244 177.7L239.4 174.8L240.2 172.4Z" fill="black"/>
<path d="M233.9 195.9L231.9 197.2C231.4 196.5 231.1 195.8 231 195.1C230.7 193.8 230.9 192.5 231.6 191.2C232.3 190 233.3 189.2 234.6 188.7C235.9 188.3 237.4 188.5 239 189.3C240.5 190.1 241.5 191.2 241.9 192.5C242.3 193.8 242.2 195.1 241.5 196.5C240.6 198.1 239.4 199 237.9 199.1C236.7 199.2 235.4 198.9 234 198.1L233.7 197.9L237.4 191.3C236.6 190.9 235.9 190.8 235.1 191.1C234.4 191.4 233.9 191.8 233.5 192.5C233.2 193 233.1 193.6 233.2 194.2C233.2 194.8 233.5 195.4 233.9 195.9ZM239 192.5L236.6 196.8C237.2 197 237.8 196.9 238.3 196.7C238.8 196.5 239.2 196.1 239.5 195.6C239.8 195.1 239.9 194.5 239.8 194C239.7 193.5 239.4 192.9 239 192.5Z" fill="black"/>
<path d="M231.9 204.2L230.9 205.6C231.6 206.4 232 207.3 232.2 208.3C232.4 209.8 232 211.2 231.1 212.4C230.1 213.7 228.9 214.4 227.4 214.6C225.9 214.8 224.5 214.4 223.2 213.4C221.9 212.4 221.2 211.2 221 209.7C220.8 208.2 221.2 206.8 222.2 205.6C223.2 204.2 224.5 203.5 226 203.4C227.2 203.3 228.2 203.6 229.2 204.2L230.2 202.9L226.6 200.2L228.1 198.3L236.5 204.7L235 206.6L231.9 204.2ZM225.8 205.7C225 205.8 224.3 206.2 223.8 206.9C223.3 207.6 223.1 208.3 223.2 209.1C223.3 209.9 223.8 210.7 224.7 211.3C225.6 212 226.5 212.3 227.3 212.2C228.1 212.1 228.8 211.7 229.3 211C229.8 210.3 230 209.6 229.9 208.8C229.8 208 229.3 207.2 228.4 206.5C227.5 205.9 226.6 205.6 225.8 205.7Z" fill="black"/>
<path d="M160.1 259.4L159.5 256.4C161 257.4 162.6 257.6 164.3 257.3C166.1 256.9 167.4 256 168.2 254.6C169 253.2 169.2 251.6 168.9 249.7C168.5 247.9 167.7 246.6 166.3 245.7C164.9 244.8 163.4 244.5 161.7 244.9C160.1 245.2 158.7 246.2 157.7 247.7L157.1 244.7C158.2 243.6 159.6 242.9 161.3 242.5C163.6 242 165.7 242.4 167.6 243.5C169.7 244.8 171 246.7 171.6 249.1C172.2 251.7 171.7 254 170.3 256.1C169.1 257.9 167.3 259 164.8 259.6C163 260 161.5 259.9 160.1 259.4Z" fill="black"/>
<path d="M155 244.1L153.1 255.8L148.2 248L144.3 256.3L141 244.9L143.5 244.7L144.9 250L147.9 243.7L151.7 249.6L152.5 244.2L155 244.1Z" fill="black"/>
<path d="M137.1 254C135.9 255 134.6 255.4 132.9 255.3C131.3 255.2 130 254.5 129 253.4C128 252.3 127.6 250.9 127.7 249.3C127.8 247.7 128.5 246.4 129.6 245.4C130.8 244.4 132.1 244 133.8 244.1C135.5 244.2 136.7 244.9 137.7 246C138.7 247.1 139.1 248.5 139 250.1C138.9 251.7 138.2 253 137.1 254ZM135.7 247.3C135.1 246.7 134.4 246.3 133.6 246.3C132.8 246.2 132 246.5 131.3 247C130.6 247.5 130.3 248.3 130.2 249.5C130.1 250.6 130.4 251.5 130.9 252.1C131.5 252.7 132.2 253.1 133 253.1C133.8 253.1 134.6 252.9 135.3 252.4C136 251.9 136.3 251 136.4 249.9C136.6 248.8 136.3 247.9 135.7 247.3Z" fill="black"/>
<path d="M123.5 243.1L121.9 251.4L125 252L124.6 254.2L116.1 252.6L116.5 250.4L119.6 251L121.2 242.8L123.5 243.1Z" fill="black"/>
<path d="M110.4 251L110.7 249.9C109.7 250.6 108.5 250.7 107.2 250.3C105.8 249.9 104.8 249 104.2 247.8C103.5 246.5 103.5 245.1 104 243.5C104.5 241.9 105.4 240.8 106.7 240.1C108 239.4 109.3 239.2 110.6 239.6C110.9 239.7 111.1 239.8 111.4 239.9C111.7 240.1 112 240.3 112.4 240.7C112.8 241.1 113.1 241.5 113.3 242L115.2 236L117.5 236.7L112.9 251.6L110.4 251ZM108.3 248.3C109.1 248.5 109.8 248.5 110.6 248.1C111.3 247.7 111.9 247 112.2 246C112.5 245.1 112.5 244.2 112.2 243.5C111.9 242.7 111.3 242.2 110.4 241.9C109.5 241.6 108.8 241.7 108.1 242.2C107.4 242.7 106.9 243.4 106.6 244.3C106.3 245.3 106.3 246.2 106.7 246.9C106.9 247.6 107.5 248.1 108.3 248.3Z" fill="black"/>
<path d="M94.3999 237.7L92.9999 235.8C93.6999 235.3 94.2999 234.9 94.9999 234.7C96.1999 234.3 97.4999 234.4 98.8999 235.1C100.1 235.7 101 236.6 101.6 237.9C102.1 239.2 102 240.7 101.3 242.3C100.6 243.9 99.5999 244.9 98.2999 245.5C96.9999 246.1 95.6999 246 94.2999 245.4C92.6999 244.6 91.6999 243.5 91.3999 242C91.1999 240.8 91.3999 239.5 92.0999 238.1L92.2999 237.8L99.1999 241C99.5999 240.2 99.5999 239.4 99.1999 238.7C98.8999 238 98.3999 237.5 97.6999 237.2C97.0999 236.9 96.4999 236.9 95.8999 237C95.3999 236.9 94.8999 237.2 94.3999 237.7ZM98.1999 242.5L93.6999 240.5C93.5999 241.1 93.5999 241.7 93.8999 242.2C94.1999 242.7 94.5999 243.1 95.0999 243.3C95.5999 243.5 96.1999 243.6 96.6999 243.5C97.2999 243.3 97.7999 243 98.1999 242.5Z" fill="black"/>
<path d="M89.9999 230.9L85.7 238.1L88.3999 239.7L87.2999 241.6L79.7999 237.2L80.8999 235.3L83.5999 236.9L87.8999 229.7L89.9999 230.9Z" fill="black"/>
<path d="M77.0999 235.3L75.0999 233.8L77.2999 230.8L76.0999 229.9C75.6999 229.6 75.4999 229.4 75.2999 229.2C75.0999 229 74.8999 228.7 74.5999 228.3C74.2999 227.9 74.1999 227.5 74.1999 227C74.0999 226.2 74.3999 225.4 74.8999 224.7C75.5999 223.8 76.2999 223.3 77.1999 223.2C77.5999 223.2 77.9999 223.2 78.3999 223.3C78.7999 223.4 79.0999 223.5 79.2999 223.7C79.4999 223.8 79.7999 224.1 80.1999 224.3L83.2999 226.6L77.0999 235.3ZM80.1999 227L79.2999 226.3C78.7999 225.9 78.3999 225.8 78.0999 225.7C77.6999 225.7 77.2999 225.8 76.9999 226.2C76.6999 226.6 76.6999 227 76.7999 227.4C76.8999 227.7 77.1999 228 77.6999 228.3L78.5999 229L80.1999 227Z" fill="black"/>
<path d="M62.8 223.6L59.9 220.6C59.2 219.8 58.7 219.1 58.7 218.4C58.6 217.6 58.9 216.9 59.5 216.3C60.2 215.6 61 215.4 61.9 215.8C61.6 215.3 61.4 214.8 61.4 214.3C61.4 213.6 61.7 212.9 62.3 212.3C63 211.6 63.9 211.3 64.8 211.4C65.6 211.5 66.3 211.9 67 212.7L70.4 216.3L62.8 223.6ZM64 219L63.1 218.1C62.8 217.8 62.5 217.6 62.3 217.5C61.9 217.4 61.6 217.5 61.3 217.8C61 218 61 218.3 61 218.7C61 218.9 61.2 219.3 61.6 219.6L62.4 220.5L64 219ZM67.3 215.9L66 214.6C65.6 214.2 65.2 214 64.9 213.9C64.5 213.8 64.1 213.9 63.9 214.2C63.6 214.5 63.5 214.8 63.6 215.2C63.6 215.5 63.9 215.9 64.3 216.3L65.6 217.7L67.3 215.9Z" fill="black"/>
<path d="M49.5 207.5L52 205.5C51.8 206.1 51.7 206.7 51.8 207.3C51.9 207.9 52.1 208.5 52.5 209C53 209.7 53.7 210.1 54.6 210.2C55.5 210.3 56.3 210.1 57.2 209.4C58 208.8 58.4 208.1 58.6 207.2C58.8 206.3 58.6 205.5 58 204.8C57.2 203.8 56.1 203.4 54.7 203.5L57.2 201.5C58.2 201.9 59 202.5 59.6 203.3C60.7 204.7 61.2 206.2 61 207.7C60.8 209.1 60.1 210.3 58.8 211.3C57.4 212.4 56 212.8 54.4 212.5C53 212.3 51.8 211.5 50.8 210.2C50.1 209.5 49.6 208.5 49.5 207.5Z" fill="black"/>
<path d="M48.6999 194.6L48.5999 192.2C49.3999 192.2 50.1999 192.2 50.8999 192.5C52.0999 192.9 53.1999 193.7 53.8999 195C54.5999 196.2 54.7999 197.4 54.4999 198.8C54.1999 200.2 53.2999 201.3 51.7999 202.3C50.2999 203.2 48.8999 203.5 47.5999 203.3C46.1999 203 45.1999 202.3 44.2999 200.9C43.3999 199.4 43.1999 197.9 43.8999 196.4C44.3999 195.3 45.2999 194.4 46.6999 193.6L46.9999 193.4L50.8999 199.9C51.6999 199.4 52.0999 198.8 52.1999 198C52.2999 197.2 52.1999 196.6 51.7999 195.9C51.4999 195.4 50.9999 195 50.3999 194.8C49.9999 194.5 49.3999 194.5 48.6999 194.6ZM49.0999 200.7L46.4999 196.5C46.0999 196.9 45.7999 197.4 45.6999 198C45.5999 198.6 45.6999 199.1 46.0999 199.6C46.3999 200.1 46.7999 200.5 47.3999 200.7C47.9999 200.9 48.4999 200.9 49.0999 200.7Z" fill="black"/>
<path d="M53.2 188.1L46.4 188.6L46.1 186.2L53.1 186.3L53.2 188.1Z" fill="black"/>
<path d="M42.7 170.6L38.8 171.8C39.2 172.5 39.5 173.2 39.7 173.8C40.1 174.9 40.1 175.9 39.8 176.7C39.5 177.5 38.8 178.1 37.7 178.4L34.4 179.4L33.7 177.1L36.5 176.2C37.2 176 37.6 175.6 37.7 175.1C37.8 174.8 37.7 174.4 37.6 173.9C37.4 173.3 37.2 172.8 36.8 172.4L32.7 173.7L32 171.4L42.1 168.3L42.7 170.6Z" fill="black"/>
<path d="M40.9 163.1L32.7 164.7L33.3 167.8L31.1 168.2L29.4 159.7L31.6 159.3L32.2 162.4L40.4 160.8L40.9 163.1Z" fill="black"/>
<path d="M30.1 155.2C28.9 154.2 28.3 152.9 28.2 151.3C28.1 149.7 28.5 148.3 29.5 147.1C30.5 145.9 31.8 145.3 33.4 145.1C35 144.9 36.4 145.4 37.5 146.4C38.7 147.4 39.3 148.7 39.4 150.3C39.5 151.9 39.1 153.3 38.1 154.5C37.1 155.7 35.8 156.3 34.2 156.5C32.6 156.6 31.2 156.2 30.1 155.2ZM36.5 152.8C37 152.1 37.2 151.4 37.2 150.5C37.1 149.7 36.8 148.9 36.2 148.4C35.6 147.8 34.7 147.6 33.6 147.7C32.5 147.8 31.6 148.2 31.1 148.8C30.6 149.5 30.4 150.2 30.4 151.1C30.5 151.9 30.8 152.7 31.4 153.2C32 153.8 32.9 154 34 153.9C35.1 153.9 36 153.5 36.5 152.8Z" fill="black"/>
<path d="M38.6 136.9L34.7 133.2C34.6 133.8 34.3 134.4 33.8 134.8C33.2 135.3 32.4 135.6 31.5 135.5C30.5 135.4 29.7 135 29.2 134.3C28.6 133.6 28.4 132.5 28.5 131.1L28.9 127.2L39.5 128.2L39.3 130.6L35.4 130.2L35.3 130.7L38.9 134L38.6 136.9ZM33.3 130L30.7 129.8L30.6 131.3C30.5 131.9 30.6 132.3 30.7 132.6C30.9 133 31.2 133.2 31.7 133.2C32.2 133.2 32.5 133.1 32.8 132.8C33 132.6 33.1 132.1 33.2 131.5L33.3 130Z" fill="black"/>
<path d="M45.9 120.2L40.1 114.8L30.5 117.1L31.3 114.2L37.9 112.8L32.9 108.3L33.6 105.6L46.5 117.5L45.9 120.2Z" fill="black"/>
<path d="M44.2 107.6L34.6 100.7L43.7 99.7999L38 92.5999L49.6 94.7999L48.6 97.0999L43.3 95.9999L47.6 101.5L40.6 102.2L45.1 105.3L44.2 107.6Z" fill="black"/>
<path d="M51.3 84.2999L53.2999 83.0999C53.6999 83.7999 54 84.4999 54.1 85.1999C54.3 86.4999 54.0999 87.7999 53.2999 88.9999C52.5999 90.1999 51.6 90.9999 50.2 91.2999C48.8 91.5999 47.4 91.3999 45.9 90.4999C44.4 89.5999 43.5 88.4999 43.1 87.1999C42.7 85.8999 42.9 84.4999 43.7 83.1999C44.6 81.5999 45.9 80.7999 47.4 80.6999C48.6 80.5999 49.8 80.9999 51.2 81.7999L51.5 81.9999L47.6 88.4999C48.4 88.8999 49.1 88.9999 49.9 88.7999C50.6 88.5999 51.2 88.0999 51.5 87.4999C51.8 86.9999 51.9 86.3999 51.9 85.7999C52 85.4999 51.7 84.8999 51.3 84.2999ZM46.1 87.5999L48.6 83.3999C48 83.1999 47.4 83.1999 46.9 83.3999C46.4 83.5999 46 83.9999 45.6 84.4999C45.3 84.9999 45.2 85.4999 45.3 86.0999C45.4 86.6999 45.7 87.1999 46.1 87.5999Z" fill="black"/>
<path d="M53.6 76.0999L54.7 74.7999C54.1 73.9999 53.7 73.0999 53.5 72.0999C53.3 70.5999 53.8 69.2999 54.8 67.9999C55.8 66.6999 57.1 66.0999 58.6 65.8999C60.1 65.7999 61.5 66.1999 62.7 67.1999C64 68.1999 64.7 69.4999 64.8 70.9999C64.9 72.4999 64.5 73.7999 63.5 75.0999C62.4 76.3999 61.1 77.0999 59.6 77.1999C58.4 77.1999 57.4 76.8999 56.4 76.1999L55.3 77.4999L58.8 80.2999L57.3 82.1999L49.1 75.4999L50.6 73.5999L53.6 76.0999ZM59.7 74.7999C60.5 74.6999 61.2 74.2999 61.7 73.6999C62.2 72.9999 62.5 72.2999 62.4 71.4999C62.3 70.6999 61.9 69.8999 61 69.1999C60.1 68.4999 59.3 68.1999 58.4 68.2999C57.6 68.3999 56.9 68.7999 56.4 69.3999C55.9 70.0999 55.6 70.7999 55.7 71.5999C55.8 72.3999 56.3 73.1999 57.1 73.8999C58.1 74.5999 58.9 74.8999 59.7 74.7999Z" fill="black"/>
<path d="M169.9 115.2C169.9 114.4 169.2 113.7 168.4 113.7H154.9C154.1 113.7 153.4 114.4 153.4 115.2C153.4 116 154.1 116.7 154.9 116.7H166.9V128.7C166.9 129.5 167.6 130.2 168.4 130.2C169.2 130.2 169.9 129.5 169.9 128.7V115.2ZM114.5 171.2L169.5 116.2L167.4 114.1L112.4 169.1L114.5 171.2Z" fill="#FFC2EF"/>
<path d="M82.1 53.5001C84.1435 53.5001 85.8 51.8436 85.8 49.8001C85.8 47.7566 84.1435 46.1001 82.1 46.1001C80.0566 46.1001 78.4 47.7566 78.4 49.8001C78.4 51.8436 80.0566 53.5001 82.1 53.5001Z" fill="black"/>
<path d="M204.4 240.2C206.443 240.2 208.1 238.543 208.1 236.5C208.1 234.457 206.443 232.8 204.4 232.8C202.357 232.8 200.7 234.457 200.7 236.5C200.7 238.543 202.357 240.2 204.4 240.2Z" fill="black"/>
</svg>
