<svg width="74" height="74" viewBox="0 0 74 74" fill="none" xmlns="http://www.w3.org/2000/svg">
<circle cx="37" cy="37" r="37" fill="#E7A7D7"/>
<path d="M24.4263 24.9467C23.8405 25.0133 23.135 25.2529 22.5493 25.5724C21.9702 25.8986 21.1049 26.7572 20.7455 27.3695C20.3994 27.9686 20.1398 28.6941 20.233 28.8339C20.2929 28.9137 36.7931 39.0109 37.0128 39.0975C37.0993 39.1307 53.746 28.9803 53.8459 28.8339C53.8925 28.7606 53.8659 28.6009 53.7594 28.2814C53.5131 27.5626 53.1137 26.9569 52.4881 26.3379C52.0155 25.8653 51.8091 25.7122 51.2833 25.4593C50.0453 24.8536 51.4031 24.9135 37.3389 24.9002C30.4899 24.8935 24.6792 24.9135 24.4263 24.9467Z" fill="black"/>
<path d="M20 38.7313C20 45.9465 20 45.86 20.3328 46.7652C20.8986 48.2761 22.303 49.5008 23.9204 49.8802C24.3996 49.9933 25.1385 50 37.0394 50C48.9404 50 49.6792 49.9933 50.1584 49.8802C51.8158 49.4941 53.2269 48.2428 53.7727 46.6587C54.0788 45.7867 54.0855 45.7002 54.0655 38.6714L54.0456 32.0021L46.1249 36.8277C41.7652 39.4835 38.0645 41.7266 37.8914 41.8197C37.4388 42.0527 36.8996 42.0926 36.4404 41.9329C36.234 41.8597 32.54 39.6499 28.0871 36.9276C23.6941 34.2385 20.0799 32.0354 20.0532 32.0154C20.02 32.0021 20 35.0239 20 38.7313Z" fill="black"/>
</svg>
