<svg width="37" height="37" viewBox="0 0 37 37" fill="none" xmlns="http://www.w3.org/2000/svg">
<path d="M16.8335 0.0738869C14.6276 0.28363 12.1613 0.985195 10.2519 1.94713C7.17078 3.50214 4.48024 5.99016 2.68656 8.93383C2.05009 9.98979 1.73908 10.6118 1.26173 11.8196C-0.857423 17.1718 -0.286047 23.3267 2.81674 28.4764C4.95036 32.0203 8.33523 34.9134 12.0239 36.3382C12.6965 36.5986 13.0798 36.7288 14.0273 36.9964C14.1502 37.0325 14.1575 36.8517 14.1575 33.9659V30.8993L13.8537 30.9571C12.5735 31.203 10.9896 30.7185 10.0638 29.7999C9.82514 29.5612 9.46351 29.1345 9.26823 28.838C9.07295 28.5487 8.76918 28.1509 8.58837 27.9556C8.25567 27.594 7.67706 27.2613 7.38052 27.2613C7.2865 27.2613 7.21417 27.2179 7.21417 27.1672C7.20694 27.1239 7.16354 26.632 7.12015 26.0824L7.02612 25.0915H7.35882C7.79278 25.0915 8.42202 25.2578 8.89937 25.4965C9.72389 25.916 10.3242 26.5091 11.1053 27.6663C11.4308 28.1581 11.7129 28.4185 12.1613 28.6499C12.5157 28.838 13.3547 28.8741 13.8826 28.715C14.2153 28.621 14.2226 28.6065 14.3021 28.2449C14.4034 27.7459 14.7216 27.0949 15.1266 26.5308C15.3075 26.2776 15.4593 26.0534 15.4593 26.0245C15.4593 26.0028 15.1556 25.9232 14.7939 25.8581C14.0056 25.7063 12.5735 25.2434 11.9515 24.9324C10.3604 24.1296 9.19591 23.0157 8.41479 21.5403C7.37329 19.573 7.22864 17.1573 8.02422 14.8935C8.31353 14.0907 8.52327 13.6784 9.00786 12.9841L9.40565 12.4055L9.2827 11.8992C9.00063 10.742 9.05849 9.32439 9.43458 8.14548C9.60093 7.60303 9.6154 7.58134 9.80345 7.6175C9.91194 7.6392 10.194 7.67536 10.4327 7.70429C11.221 7.79108 12.0817 8.15271 13.521 9.01339C14.4251 9.5486 14.3238 9.53414 15.604 9.2593C17.6291 8.82534 19.9002 8.87597 22.1567 9.41842L22.6052 9.52691L23.2778 9.12911C24.9051 8.16718 25.896 7.77662 27.046 7.63196L27.3859 7.58857L27.5667 8.15271C27.9356 9.31716 27.9935 10.7348 27.7114 11.892L27.5957 12.3983L28.0079 13.0492C29.1362 14.8284 29.5123 16.0073 29.5123 17.7504C29.5123 20.8821 27.8777 23.5003 25.0426 24.9324C24.4206 25.2434 22.9885 25.7063 22.2074 25.8581C21.8385 25.9232 21.5347 26.0028 21.5347 26.0245C21.5347 26.0534 21.7011 26.2993 21.9036 26.5742C22.1134 26.8562 22.352 27.2468 22.4533 27.4566C22.8149 28.2377 22.8366 28.5053 22.8366 32.9244C22.8366 36.8011 22.8438 37.0325 22.9668 36.9964C23.9143 36.7288 24.2976 36.5986 24.9702 36.3382C29.1796 34.7181 32.8321 31.3188 34.9295 27.0877C37.3742 22.1623 37.6635 16.7017 35.7396 11.8413C35.255 10.6118 34.9512 9.98979 34.3075 8.93383C32.767 6.40242 30.6044 4.23987 28.073 2.69932C27.0171 2.06285 26.3951 1.75185 25.18 1.2745C22.5835 0.247467 19.5747 -0.186489 16.8335 0.0738869Z" fill="black"/>
</svg>
