<svg width="74" height="74" viewBox="0 0 74 74" fill="none" xmlns="http://www.w3.org/2000/svg">
<circle cx="37" cy="37" r="37" fill="#49BD8A"/>
<g clip-path="url(#clip0_211_12)">
<path d="M28.0605 21.1062C27.5426 21.2324 26.8121 21.5976 26.4004 21.9363C25.816 22.4211 25.225 23.2047 25.0723 23.7027L25.0324 23.8555H31.4605C37.0387 23.8555 37.9484 23.8687 38.2871 23.9551C39.3297 24.2273 40.2062 25.1039 40.4785 26.1465C40.6312 26.7375 40.6312 36.7781 40.4785 37.3691C40.3324 37.907 40.0801 38.3519 39.6683 38.7703C39.2965 39.1488 38.991 39.3348 38.3933 39.534C38.048 39.6535 37.716 39.6601 31.3676 39.6601H24.7004L24.7203 45.4906C24.7402 50.8031 24.7535 51.3476 24.8598 51.7129C25.2383 53.0144 26.0617 54.0105 27.1973 54.5684C28.1269 55.0199 27.5492 55 37.7625 55H47.0062L47.5242 54.8473C48.9719 54.4289 50.041 53.3797 50.5656 51.8523C50.7051 51.4473 50.7051 51.4074 50.725 40.4703L50.7383 29.5H47.9359C46.3887 29.5 44.9476 29.4734 44.7351 29.4336C43.6859 29.2609 42.8625 28.4773 42.6433 27.4547C42.5969 27.2223 42.5703 26.0601 42.5703 24.0547V21L35.518 21.0066C29.6012 21.0133 28.3926 21.0266 28.0605 21.1062ZM39.8078 41.1277C39.9141 41.2074 39.9805 41.3269 39.9805 41.4332C39.9805 41.6855 36.3945 49.0168 36.2152 49.1363C35.9363 49.3223 35.4648 49.0633 35.4648 48.7312C35.4648 48.5652 38.9512 41.3336 39.1371 41.1144C39.2832 40.9484 39.5887 40.9551 39.8078 41.1277ZM34.5816 43.9433C34.7742 44.1359 34.8074 44.209 34.7875 44.4215C34.7676 44.6672 34.741 44.6937 33.8379 45.2914C33.3266 45.6301 32.9082 45.9355 32.9082 45.9687C32.9082 46.0019 33.2668 46.2543 33.7051 46.5398C34.1433 46.8187 34.5683 47.1109 34.6547 47.184C34.8672 47.3766 34.8473 47.7086 34.6215 47.9543C34.2762 48.3328 34.2297 48.3195 32.8086 47.3965C31.1816 46.3473 31.1484 46.3207 31.1484 45.9887C31.1484 45.8426 31.1883 45.6766 31.2348 45.6168C31.3742 45.4242 34.0238 43.7176 34.1965 43.7176C34.2894 43.7109 34.4422 43.8039 34.5816 43.9433ZM42.7961 44.6473C44.1441 45.5238 44.2969 45.6633 44.2969 46.0019C44.2969 46.2676 44.0047 46.5133 42.6367 47.3965C41.2488 48.293 41.1824 48.3129 40.8637 48.0141C40.6512 47.8215 40.5715 47.5492 40.6644 47.3566C40.7109 47.2703 41.1558 46.925 41.6539 46.5996C42.1586 46.2676 42.5703 45.9887 42.5703 45.9687C42.5703 45.9488 42.1851 45.6832 41.7137 45.3844C41.2422 45.0789 40.8039 44.7734 40.7375 44.7004C40.6777 44.634 40.6246 44.4746 40.6312 44.3617C40.6379 44.0762 41.043 43.6844 41.282 43.7309C41.3683 43.7441 42.0457 44.1558 42.7961 44.6473Z" fill="black"/>
<path d="M44.4961 24.3469V27.1691L44.6555 27.3551L44.8148 27.541L47.5176 27.5609C49.7023 27.5742 50.207 27.5609 50.1672 27.4945C50.1008 27.3883 44.5559 21.5312 44.5227 21.5312C44.5094 21.5312 44.4961 22.7996 44.4961 24.3469Z" fill="black"/>
<path d="M20.3029 25.8078C19.8846 26.0004 19.5061 26.4387 19.3799 26.8703C19.2272 27.375 19.2338 36.0211 19.3865 36.5324C19.5127 36.9707 19.8713 37.3758 20.3096 37.575L20.6416 37.7344H28.9092C36.8315 37.7344 37.1901 37.7277 37.449 37.6082C37.7877 37.4555 38.1397 37.1102 38.3123 36.7648C38.4319 36.5191 38.4385 36.3 38.4584 31.7645L38.4717 27.0297L38.319 26.6844C38.1197 26.2594 37.8674 26.007 37.4424 25.8078L37.1104 25.6484H28.876H20.6416L20.3029 25.8078Z" fill="black"/>
<path d="M24.0297 29.9317V30.7485C24.0297 31.0938 23.9101 31.2664 23.6644 31.2664C23.4187 31.2664 23.2992 31.0938 23.2992 30.7485V28.5039C23.2992 28.1586 23.4187 27.986 23.6644 27.986C23.9101 27.986 24.0297 28.1586 24.0297 28.5039V29.261H25.3711V28.5039C25.3711 28.1586 25.4906 27.986 25.7363 27.986C25.982 27.986 26.1015 28.1586 26.1015 28.5039V30.7418C26.1015 31.0871 25.982 31.2598 25.7363 31.2598C25.4906 31.2598 25.3711 31.0871 25.3711 30.7418V29.925H24.0297V29.9317Z" fill="#55A17D"/>
<path d="M27.2836 28.7031C27.018 28.7031 26.8586 28.6965 26.7922 28.6832C26.593 28.6433 26.4933 28.5371 26.4933 28.3644C26.4933 28.1386 26.666 28.0258 27.018 28.0258H28.2863C28.6316 28.0258 28.8043 28.1386 28.8043 28.3644C28.8043 28.5371 28.7047 28.6367 28.5055 28.6832C28.4391 28.6965 28.2797 28.7031 28.0141 28.7031V30.7418C28.0141 31.0871 27.8945 31.2597 27.6488 31.2597C27.4031 31.2597 27.2836 31.0871 27.2836 30.7418V28.7031Z" fill="#55A17D"/>
<path d="M30.8031 30.2172H30.823L31.2414 28.4176C31.2679 28.2914 31.3344 28.1918 31.4273 28.1055C31.5203 28.0258 31.6332 27.986 31.7594 27.986C31.9054 27.986 32.0316 28.0324 32.1379 28.1254C32.2441 28.2184 32.3039 28.3379 32.3304 28.484L32.6824 30.6688C32.7023 30.775 32.709 30.8547 32.709 30.9145C32.709 31.1469 32.6027 31.2598 32.3836 31.2598C32.2574 31.2598 32.1644 31.2133 32.1047 31.1137C32.0648 31.0473 32.0316 30.941 32.0117 30.7949L31.7328 29.0485H31.7195L31.3078 30.6688C31.2613 30.8348 31.2148 30.9543 31.1617 31.0274C31.082 31.127 30.9625 31.1801 30.8164 31.1801C30.6703 31.1801 30.5508 31.127 30.4711 31.0274C30.4179 30.961 30.3648 30.8414 30.325 30.6688L29.9066 29.0485H29.9L29.6277 30.7949C29.6011 30.9477 29.5746 31.0539 29.5281 31.1137C29.4683 31.2067 29.3687 31.2598 29.2426 31.2598C29.0234 31.2598 28.9105 31.1469 28.9105 30.9145C28.9105 30.8813 28.9238 30.8016 28.9437 30.6688L29.2957 28.484C29.3222 28.3379 29.382 28.2184 29.4883 28.1254C29.5945 28.0324 29.714 27.986 29.8601 27.986C29.9929 27.986 30.1058 28.0258 30.1922 28.1055C30.2851 28.1852 30.3449 28.2914 30.3781 28.4176L30.8031 30.2172Z" fill="#55A17D"/>
<path d="M33.2601 28.5039C33.2601 28.1586 33.3797 27.986 33.6254 27.986C33.8711 27.986 33.9906 28.1586 33.9906 28.5039V30.5559H34.6082C34.9535 30.5559 35.1261 30.6688 35.1261 30.8879C35.1261 31.1137 34.9535 31.2199 34.6082 31.2199H33.7582C33.5722 31.2199 33.4461 31.1867 33.373 31.127C33.3 31.0672 33.2668 30.941 33.2668 30.7617V28.5039H33.2601Z" fill="#55A17D"/>
<path d="M26.3937 35.9083C25.9223 35.9083 25.5504 35.7489 25.2648 35.4368C24.9992 35.138 24.8664 34.7462 24.8664 34.2747C24.8664 33.8098 25.0058 33.418 25.2781 33.1126C25.5637 32.7938 25.9355 32.6278 26.4004 32.6278C26.5465 32.6278 26.6726 32.6411 26.7789 32.6677C26.9183 32.7009 27.0379 32.7473 27.1375 32.8137C27.2703 32.9067 27.3367 33.0063 27.3367 33.1192C27.3367 33.2055 27.3101 33.2786 27.2504 33.3384C27.1906 33.3981 27.1176 33.4313 27.0379 33.4313C26.9648 33.4313 26.8719 33.4114 26.7656 33.3649C26.6594 33.3251 26.5398 33.2985 26.407 33.2985C26.1547 33.2985 25.9555 33.4048 25.8226 33.6106C25.7031 33.7899 25.6433 34.0091 25.6433 34.2747C25.6433 34.5403 25.7031 34.7594 25.8293 34.9255C25.9687 35.1114 26.168 35.2044 26.4269 35.2044C26.5398 35.2044 26.666 35.1778 26.8055 35.1247C26.9449 35.0716 27.0379 35.045 27.0844 35.045C27.1641 35.045 27.2371 35.0782 27.2902 35.138C27.3433 35.2044 27.3765 35.2774 27.3765 35.3571C27.3765 35.4235 27.35 35.4899 27.3035 35.5563C27.1508 35.802 26.8453 35.9083 26.3937 35.9083Z" fill="#55A17D"/>
<path d="M30.0593 34.8656C30.0593 35.1977 29.9398 35.4567 29.6941 35.6426C29.475 35.8153 29.1894 35.9082 28.8507 35.9082C28.6781 35.9082 28.5054 35.8817 28.3461 35.8418C28.1468 35.7887 28.0074 35.7024 27.9144 35.5961C27.8679 35.5364 27.8414 35.4766 27.8414 35.4102C27.8414 35.3106 27.8746 35.2375 27.941 35.1778C28.0074 35.1246 28.0937 35.0981 28.1933 35.0981C28.2464 35.0981 28.3593 35.1246 28.5254 35.1711C28.7047 35.2242 28.8507 35.2508 28.9504 35.2508C29.05 35.2508 29.1363 35.2242 29.2027 35.1645C29.2691 35.1047 29.3089 35.0317 29.3089 34.9321C29.3089 34.8059 29.2625 34.7129 29.1629 34.6598C29.0765 34.6133 28.9437 34.5602 28.7578 34.5004C28.4789 34.4141 28.273 34.3211 28.1468 34.2149C27.9675 34.0688 27.8812 33.8696 27.8812 33.6172C27.8812 33.3117 27.9941 33.066 28.2199 32.8867C28.4324 32.7207 28.698 32.6344 29.0101 32.6344C29.2757 32.6344 29.4816 32.6809 29.6343 32.7672C29.7871 32.8602 29.8668 32.9664 29.8668 33.086C29.8668 33.2852 29.7605 33.3914 29.5414 33.3914C29.475 33.3914 29.3886 33.3715 29.2691 33.3383C29.1562 33.3051 29.0566 33.2852 28.9836 33.2852C28.8906 33.2852 28.8109 33.3051 28.7445 33.3449C28.6714 33.3914 28.6382 33.4578 28.6382 33.5508C28.6382 33.6039 28.6515 33.6504 28.6781 33.6836C28.7113 33.7301 28.791 33.7832 28.9172 33.8297C29.0101 33.8563 29.1031 33.8895 29.1961 33.916C29.4683 34.009 29.6675 34.1219 29.8004 34.2414C29.973 34.4074 30.0593 34.6133 30.0593 34.8656Z" fill="#55A17D"/>
<path d="M32.6957 34.8656C32.6957 35.1977 32.5762 35.4567 32.3305 35.6426C32.1113 35.8153 31.8258 35.9082 31.4871 35.9082C31.3144 35.9082 31.1418 35.8817 30.9824 35.8418C30.7832 35.7887 30.6437 35.7024 30.5508 35.5961C30.5043 35.5364 30.4777 35.4766 30.4777 35.4102C30.4777 35.3106 30.5109 35.2375 30.5773 35.1778C30.6437 35.1246 30.7301 35.0981 30.8297 35.0981C30.8828 35.0981 30.9957 35.1246 31.1617 35.1711C31.341 35.2242 31.4871 35.2508 31.5867 35.2508C31.6863 35.2508 31.7726 35.2242 31.8391 35.1645C31.9055 35.1047 31.9453 35.0317 31.9453 34.9321C31.9453 34.8059 31.8988 34.7129 31.7992 34.6598C31.7129 34.6133 31.5801 34.5602 31.3941 34.5004C31.1152 34.4141 30.9094 34.3211 30.7832 34.2149C30.6039 34.0688 30.5176 33.8696 30.5176 33.6172C30.5176 33.3117 30.6305 33.066 30.8562 32.8867C31.0687 32.7207 31.3344 32.6344 31.6465 32.6344C31.9121 32.6344 32.118 32.6809 32.2707 32.7672C32.4234 32.8602 32.5031 32.9664 32.5031 33.086C32.5031 33.2852 32.3969 33.3914 32.1777 33.3914C32.1113 33.3914 32.025 33.3715 31.9055 33.3383C31.7926 33.3051 31.693 33.2852 31.6199 33.2852C31.5269 33.2852 31.4473 33.3051 31.3808 33.3449C31.3078 33.3914 31.2746 33.4578 31.2746 33.5508C31.2746 33.6039 31.2879 33.6504 31.3144 33.6836C31.3476 33.7301 31.4273 33.7832 31.5535 33.8297C31.6465 33.8563 31.7394 33.8895 31.8324 33.916C32.1047 34.009 32.3039 34.1219 32.4367 34.2414C32.6094 34.4074 32.6957 34.6133 32.6957 34.8656Z" fill="#55A17D"/>
</g>
<defs>
<clipPath id="clip0_211_12">
<rect width="34" height="34" fill="white" transform="translate(18 21)"/>
</clipPath>
</defs>
</svg>
