<svg width="35" height="35" viewBox="0 0 35 35" fill="none" xmlns="http://www.w3.org/2000/svg">
<path d="M7.30637 0.0990715C5.40715 0.384621 3.89972 1.14165 2.51846 2.52291C1.11065 3.92408 0.333692 5.5112 0.0747073 7.49675C-0.0249024 8.2737 -0.0249024 25.7253 0.0747073 26.5023C0.333692 28.4878 1.10401 30.0683 2.51846 31.4828C3.93292 32.8972 5.5134 33.6675 7.49895 33.9265C8.2759 34.0261 25.7275 34.0261 26.5045 33.9265C28.49 33.6675 30.0705 32.8972 31.485 31.4828C32.8994 30.0683 33.6697 28.4878 33.9287 26.5023C34.0283 25.7253 34.0283 8.2737 33.9287 7.49675C33.6697 5.5112 32.8928 3.92408 31.485 2.52291C30.0639 1.10181 28.49 0.331493 26.5045 0.0725098C25.6545 -0.0403824 8.05676 -0.0138206 7.30637 0.0990715ZM27.142 5.91628C28.5764 6.60026 28.7291 8.6323 27.4076 9.5155C26.9361 9.83426 26.6373 9.91394 26.0728 9.88074C25.3025 9.82762 24.6849 9.42254 24.3197 8.73191C24.167 8.44636 24.1404 8.32019 24.1404 7.80222C24.1404 7.09831 24.2732 6.753 24.7248 6.30807C25.0568 5.9694 25.2959 5.84323 25.7674 5.73698C26.2588 5.63073 26.6506 5.68385 27.142 5.91628ZM18.363 10.0667C20.508 10.4784 22.3408 11.8729 23.3236 13.8452C23.8349 14.8745 24.0541 15.8108 24.0541 16.9995C24.0541 18.8722 23.4099 20.5124 22.1482 21.8405C20.7603 23.3015 19.0205 24.0519 17.0017 24.0519C13.5818 24.0519 10.7728 21.7476 10.0622 18.3608C9.91614 17.6569 9.91614 16.3421 10.0622 15.6382C10.3544 14.2569 10.9322 13.1347 11.8552 12.1585C12.4396 11.5409 12.9376 11.1557 13.6349 10.7905C15.1623 9.98035 16.6763 9.74793 18.363 10.0667Z" fill="white"/>
</svg>
