<svg width="74" height="74" viewBox="0 0 74 74" fill="none" xmlns="http://www.w3.org/2000/svg">
<circle cx="37" cy="37" r="37" fill="#49BD8A"/>
<g clip-path="url(#clip0_211_11)">
<path d="M28.0605 21.1062C27.5426 21.2324 26.8121 21.5976 26.4004 21.9363C25.816 22.4211 25.225 23.2047 25.0723 23.7027L25.0324 23.8555H31.4605C37.0387 23.8555 37.9484 23.8687 38.2871 23.9551C39.3297 24.2273 40.2062 25.1039 40.4785 26.1465C40.6312 26.7375 40.6312 36.7781 40.4785 37.3691C40.3324 37.907 40.0801 38.3519 39.6683 38.7703C39.2965 39.1488 38.991 39.3348 38.3933 39.534C38.048 39.6535 37.716 39.6601 31.3676 39.6601H24.7004L24.7203 45.4906C24.7402 50.8031 24.7535 51.3476 24.8598 51.7129C25.2383 53.0144 26.0617 54.0105 27.1973 54.5684C28.1269 55.0199 27.5492 55 37.7625 55H47.0062L47.5242 54.8473C48.9719 54.4289 50.041 53.3797 50.5656 51.8523C50.7051 51.4473 50.7051 51.4074 50.725 40.4703L50.7383 29.5H47.9359C46.3887 29.5 44.9476 29.4734 44.7351 29.4336C43.6859 29.2609 42.8625 28.4773 42.6433 27.4547C42.5969 27.2223 42.5703 26.0601 42.5703 24.0547V21L35.518 21.0066C29.6012 21.0133 28.3926 21.0266 28.0605 21.1062Z" fill="black"/>
<path d="M44.4961 24.3469V27.1691L44.6555 27.3551L44.8148 27.541L47.5176 27.5609C49.7023 27.5742 50.207 27.5609 50.1672 27.4945C50.1008 27.3883 44.5559 21.5312 44.5227 21.5312C44.5094 21.5312 44.4961 22.7996 44.4961 24.3469Z" fill="black"/>
<path d="M20.2844 25.8078C19.866 26.0004 19.4875 26.4387 19.3613 26.8703C19.2086 27.375 19.2153 36.0211 19.368 36.5324C19.4942 36.9707 19.8528 37.3758 20.291 37.575L20.6231 37.7344H28.8906C36.8129 37.7344 37.1715 37.7277 37.4305 37.6082C37.7692 37.4555 38.1211 37.1102 38.2938 36.7648C38.4133 36.5191 38.4199 36.3 38.4399 31.7645L38.4531 27.0297L38.3004 26.6844C38.1012 26.2594 37.8489 26.007 37.4238 25.8078L37.0918 25.6484H28.8574H20.6231L20.2844 25.8078Z" fill="black"/>
<path d="M32.5695 28.7828C32.8484 28.9024 32.9613 29.1414 32.875 29.4735C32.8019 29.759 32.4301 29.8786 31.5867 29.8786C30.7367 29.8786 30.5707 29.9782 30.5707 30.4828C30.5707 30.8746 30.7566 31.0606 31.2281 31.1203C32.2508 31.2532 32.9082 31.9438 32.9082 32.8868C32.9082 33.6039 32.4765 34.2348 31.8191 34.5137C31.3808 34.693 30.1656 34.7461 29.807 34.5934C29.5082 34.4672 29.3953 34.2348 29.475 33.8961C29.548 33.6106 29.9199 33.4911 30.7633 33.4911C31.6133 33.4911 31.7793 33.3914 31.7793 32.8868C31.7793 32.495 31.5933 32.309 31.1219 32.2493C30.0859 32.0965 29.4418 31.4258 29.4418 30.4828C29.4418 29.6063 30.0461 28.8957 30.9093 28.743C31.4672 28.6567 32.3039 28.67 32.5695 28.7828Z" fill="#55A17D"/>
<path d="M27.9344 28.8958C28.1602 29.1215 28.1801 29.4071 28.1535 31.3926C28.1203 33.418 28.0871 33.5907 27.6223 34.0887C26.9582 34.786 25.8094 34.8059 25.132 34.1286C24.4746 33.4711 24.4746 32.3688 25.132 32.3688C25.4641 32.3688 25.6035 32.5016 25.7363 32.9333C25.8027 33.1657 25.9156 33.3782 25.9953 33.4247C26.2344 33.5508 26.6594 33.5176 26.8254 33.3516C26.9715 33.2055 26.9781 33.1059 26.9781 31.2864C26.9781 29.354 27.018 29.0352 27.257 28.8493C27.4297 28.7098 27.7684 28.7364 27.9344 28.8958Z" fill="#55A17D"/>
<path d="M33.3996 42.5688C33.5457 42.7148 33.5723 42.9672 33.466 43.1664C33.4262 43.2461 33.2402 43.3391 33.0344 43.4055C32.8352 43.4586 32.6426 43.5582 32.6094 43.618C32.5762 43.6777 32.5363 44.3285 32.5231 45.059C32.4965 46.4336 32.4434 46.7191 32.1578 47.0313C32.0582 47.1441 32.0582 47.1574 32.1578 47.2703C32.4434 47.5824 32.4965 47.868 32.5231 49.2426C32.5363 49.973 32.5762 50.6238 32.6094 50.6836C32.6426 50.7434 32.8352 50.843 33.0344 50.8961C33.4129 51.009 33.5324 51.1352 33.5324 51.4273C33.5324 52.025 32.5363 51.9984 31.9586 51.3941C31.5668 50.9758 31.5203 50.7766 31.4805 49.2625C31.4539 48.4855 31.4141 47.8613 31.3742 47.8215C31.341 47.7883 31.1418 47.702 30.9426 47.6355C30.5309 47.5027 30.3981 47.2969 30.5176 46.9648C30.5641 46.8254 30.657 46.759 30.9426 46.666C31.1418 46.5996 31.341 46.5133 31.3742 46.4801C31.4141 46.4402 31.4539 45.816 31.4805 45.0391C31.5203 43.525 31.5668 43.3258 31.9586 42.9074C32.3902 42.4625 33.1273 42.2898 33.3996 42.5688Z" fill="#55A17D"/>
<path d="M43.2676 42.5621C43.4137 42.6285 43.6262 42.7879 43.7457 42.9074C44.1375 43.3258 44.184 43.525 44.2238 45.039C44.2504 45.816 44.2902 46.4402 44.3301 46.4801C44.3699 46.5133 44.5625 46.5996 44.7617 46.666C45.1734 46.7988 45.3063 47.0047 45.1867 47.3301C45.1402 47.4761 45.0473 47.5426 44.7617 47.6355C44.5625 47.7019 44.3699 47.7883 44.3301 47.8215C44.2902 47.8613 44.2504 48.4855 44.2238 49.2625C44.184 50.7765 44.1375 50.9758 43.7457 51.3941C43.168 51.9984 42.1719 52.025 42.1719 51.4273C42.1719 51.1351 42.2914 51.009 42.6699 50.8961C42.8691 50.8429 43.0617 50.7433 43.0949 50.6836C43.1281 50.6238 43.168 49.973 43.1813 49.2426C43.2078 47.8679 43.2609 47.5824 43.5465 47.2703C43.6461 47.1574 43.6461 47.1441 43.5465 47.0312C43.2609 46.7191 43.2078 46.4336 43.1813 45.059C43.168 44.3285 43.1281 43.6777 43.0949 43.6179C43.0617 43.5582 42.8691 43.4586 42.6699 43.4054C42.2914 43.2926 42.1719 43.1664 42.1719 42.8742C42.1719 42.4625 42.7098 42.3031 43.2676 42.5621Z" fill="#55A17D"/>
<path d="M36.0625 46.8187C36.1355 46.8918 36.1953 47.0379 36.1953 47.1508C36.1953 47.2636 36.1355 47.4097 36.0625 47.4828C35.9895 47.5558 35.8434 47.6156 35.7305 47.6156C35.6176 47.6156 35.4715 47.5558 35.3984 47.4828C35.3254 47.4097 35.2656 47.2636 35.2656 47.1508C35.2656 47.0379 35.3254 46.8918 35.3984 46.8187C35.4715 46.7457 35.6176 46.6859 35.7305 46.6859C35.8367 46.6859 35.9895 46.7457 36.0625 46.8187Z" fill="#55A17D"/>
<path d="M38.1875 46.8187C38.2605 46.8918 38.3203 47.0379 38.3203 47.1508C38.3203 47.2636 38.2605 47.4097 38.1875 47.4828C38.1145 47.5558 37.9684 47.6156 37.8555 47.6156C37.7426 47.6156 37.5965 47.5558 37.5234 47.4828C37.4504 47.4097 37.3906 47.2636 37.3906 47.1508C37.3906 47.0379 37.4504 46.8918 37.5234 46.8187C37.5965 46.7457 37.7426 46.6859 37.8555 46.6859C37.9617 46.6859 38.1145 46.7457 38.1875 46.8187Z" fill="#55A17D"/>
<path d="M40.3125 46.8187C40.3855 46.8918 40.4453 47.0379 40.4453 47.1508C40.4453 47.2636 40.3855 47.4097 40.3125 47.4828C40.2395 47.5558 40.0934 47.6156 39.9805 47.6156C39.8676 47.6156 39.7215 47.5558 39.6484 47.4828C39.5754 47.4097 39.5156 47.2636 39.5156 47.1508C39.5156 47.0379 39.5754 46.8918 39.6484 46.8187C39.7215 46.7457 39.8676 46.6859 39.9805 46.6859C40.0867 46.6859 40.2395 46.7457 40.3125 46.8187Z" fill="#55A17D"/>
</g>
<defs>
<clipPath id="clip0_211_11">
<rect width="34" height="34" fill="white" transform="translate(18 21)"/>
</clipPath>
</defs>
</svg>
