<svg width="298" height="111" viewBox="0 0 298 111" fill="none" xmlns="http://www.w3.org/2000/svg">
<path d="M54.52 108.784L54.7124 108.599C55.1293 108.26 95.3129 73.8285 97.7502 54.3953C100.155 35.2701 84.9222 17.7463 63.7882 15.2825C42.6541 12.8495 23.5405 26.4004 21.1353 45.5257C18.73 64.7433 49.1964 107.583 49.5171 108.014L49.6774 108.229C50.7999 110.354 52.8524 110.601 54.52 108.784Z" fill="#E7A7D7"/>
<path d="M62.9767 29.9804C49.0081 28.3627 36.35 37.1834 34.7838 49.6361C33.6011 59.0366 46.1313 80.8288 54.9535 93.373C66.6207 83.2705 84.2333 64.9882 85.4479 55.4656C87.0142 43.0435 76.9453 31.598 62.9767 29.9804Z" fill="#FFE1F8"/>
<path d="M96.3852 43C96.5814 42.7505 96.7775 42.501 96.9737 42.2203C101.943 34.6109 99.2951 9.10073 99.2951 9.10073C99.2624 7.3543 97.8565 6.54347 96.189 7.26075C96.189 7.26075 77.4545 15.4003 70 22.6355C81.7376 25.8165 91.1212 33.3323 96.3852 43Z" fill="#E7A7D7"/>
<path d="M24.9039 34C32.468 25.9566 43.1411 21.1366 55 20.7148C49.6795 12.3099 33.8462 0.561068 33.8462 0.561068C32.436 -0.493313 30.9296 -0.0113124 30.4488 1.58532C30.4488 1.58532 21.6988 24.9624 24.5834 33.1866C24.6475 33.4879 24.7757 33.7289 24.9039 34Z" fill="#E7A7D7"/>
<path d="M92.6055 36C93.6807 32.7388 94.4952 25.2714 93.6481 15C85.5358 18.6575 80.0625 22.1016 77 24.5094C83.1901 27.2525 88.5005 31.2148 92.6055 36Z" fill="#FFE1F8"/>
<path d="M48 21.1911C45.9268 18.1111 41.982 13.4756 35.8487 8C32.8253 17.9244 31.8463 25.4844 32.0191 29C36.6262 25.2044 42.0971 22.4978 48 21.1911Z" fill="#FFE1F8"/>
<path d="M0.730469 77.1289C0.907552 76.1771 1.0293 75.6237 1.0957 75.4688C1.31706 74.6497 1.80404 74.0189 2.55664 73.5762C2.8444 73.3991 3.45312 73.1003 4.38281 72.6797C6.52995 71.7279 8.8431 71.0527 11.3223 70.6543C13.8457 70.2337 16.3691 70.1341 18.8926 70.3555C21.5267 70.5768 23.9395 71.1634 26.1309 72.1152C28.4993 73.1556 30.4915 74.5612 32.1074 76.332C32.8822 77.1732 33.5794 78.1361 34.1992 79.2207C34.819 80.4603 35.2617 81.5892 35.5273 82.6074C35.8372 83.847 35.9258 85.0202 35.793 86.127C35.5052 88.8496 33.834 91.2513 30.7793 93.332C27.7246 95.3906 25.1458 96.6855 23.043 97.2168C20.7409 97.7923 17.9518 98.0247 14.6758 97.9141C14.543 97.8919 14.3548 97.9141 14.1113 97.9805C13.8678 98.0469 13.6686 98.1133 13.5137 98.1797C13.2923 98.2904 13.071 98.4232 12.8496 98.5781C12.3626 98.9544 11.9753 99.5853 11.6875 100.471C11.444 101.268 11.278 102.197 11.1895 103.26C11.1452 103.924 11.123 104.898 11.123 106.182C11.123 106.646 11.1341 107.078 11.1562 107.477C11.1784 107.875 11.2005 108.218 11.2227 108.506C11.2448 108.816 11.2337 109.092 11.1895 109.336C11.123 109.557 11.0124 109.723 10.8574 109.834C10.6803 109.967 10.4922 110.033 10.293 110.033C9.98307 110.077 9.71745 110.1 9.49609 110.1C8.61068 110.1 7.64779 110.033 6.60742 109.9C5.56706 109.745 4.69271 109.402 3.98438 108.871C3.78516 108.76 3.59701 108.583 3.41992 108.34C3.11003 107.964 2.80013 107.189 2.49023 106.016C2.22461 105.108 1.95898 103.924 1.69336 102.463C1.42773 101.312 1.20638 100.083 1.0293 98.7773C0.807943 97.4271 0.686198 96.5749 0.664062 96.2207C0.664062 96.1322 0.664062 96.0215 0.664062 95.8887C0.641927 95.8223 0.619792 95.7669 0.597656 95.7227C0.597656 95.6562 0.597656 95.6009 0.597656 95.5566C0.597656 95.4017 0.586589 95.291 0.564453 95.2246C0.564453 95.1803 0.553385 95.1361 0.53125 95.0918C0.53125 95.0475 0.53125 94.9922 0.53125 94.9258C0.464844 94.2396 0.398438 93.5423 0.332031 92.834C0.265625 92.1035 0.221354 91.373 0.199219 90.6426C0.0885417 89.3145 0.0221354 87.7982 0 86.0938C0 84.2786 0.0553385 82.7513 0.166016 81.5117C0.276693 79.8073 0.464844 78.3464 0.730469 77.1289ZM22.8105 79.3867C20.5085 78.4128 17.6198 78.291 14.1445 79.0215C13.7904 79.1543 13.5026 79.265 13.2812 79.3535C12.4622 79.752 11.8314 80.3939 11.3887 81.2793C11.0566 82.0098 10.9017 83.1387 10.9238 84.666C10.946 86.1934 11.1562 87.278 11.5547 87.9199C11.8424 88.3184 12.1191 88.6172 12.3848 88.8164C13.1374 89.5026 14.6426 89.8236 16.9004 89.7793C18.0736 89.8014 19.3242 89.7129 20.6523 89.5137C22.0026 89.3145 23.1536 88.7832 24.1055 87.9199C24.6589 87.3665 25.0905 86.7578 25.4004 86.0938C25.7103 85.4076 25.8652 84.6771 25.8652 83.9023C25.821 82.2201 25.0462 80.8477 23.541 79.7852C23.3197 79.6302 23.0762 79.4974 22.8105 79.3867ZM88.0294 71.8496C89.7117 75.7454 91.7482 79.9733 94.1388 84.5332C96.5294 89.0931 99.9162 93.8301 104.299 98.7441C106.712 92.2142 108.305 86.6139 109.08 81.9434C109.877 77.2507 110.442 72.9785 110.774 69.127C110.862 67.5996 111.305 66.6589 112.102 66.3047C112.899 65.9505 113.917 65.8398 115.156 65.9727C115.998 66.0612 116.75 66.2493 117.414 66.5371C118.1 66.8249 118.809 67.2122 119.539 67.6992C120.137 68.1419 120.569 68.7617 120.834 69.5586C121.188 70.6211 121.376 71.9382 121.399 73.5098C121.443 75.347 121.255 77.6712 120.834 80.4824C120.436 83.2936 119.882 86.1934 119.174 89.1816C118.488 92.1699 117.702 95.0475 116.817 97.8145C115.931 100.581 115.035 102.817 114.127 104.521C113.662 105.385 113.076 106.27 112.367 107.178C111.681 108.085 110.84 108.683 109.844 108.971C108.051 109.502 105.793 109.424 103.07 108.738C100.348 108.052 98.3224 107.1 96.9943 105.883C95.5334 104.577 93.9175 102.784 92.1466 100.504C90.3758 98.2018 88.6603 95.7669 87.0002 93.1992C85.3621 90.6094 83.868 88.0638 82.5177 85.5625C81.1896 83.0391 80.2599 80.9141 79.7287 79.1875C79.2196 77.638 78.9539 76.321 78.9318 75.2363C78.9097 74.3952 79.1089 73.6758 79.5294 73.0781C80.0164 72.3698 80.4923 71.8275 80.9572 71.4512C81.422 71.0749 82.0529 70.6986 82.8498 70.3223C83.9565 69.791 84.9416 69.5586 85.8048 69.625C86.6681 69.6914 87.4097 70.4329 88.0294 71.8496Z" fill="white"/>
<path d="M129.951 70.1523C130.372 69.9753 130.814 69.8314 131.279 69.7207C131.744 69.5879 132.209 69.444 132.674 69.2891C135.64 68.293 139.215 67.5072 143.398 66.9316C147.604 66.334 151.378 66.2676 154.721 66.7324C155.562 66.8652 156.447 67.0755 157.377 67.3633C158.307 67.6289 159.048 68.0938 159.602 68.7578C160.199 69.5104 160.686 70.9271 161.062 73.0078C161.461 75.0664 160.808 76.151 159.104 76.2617C158.639 76.306 158.163 76.2839 157.676 76.1953C157.189 76.1068 156.724 76.0293 156.281 75.9629C151.943 75.498 148.434 75.321 145.756 75.4316C143.077 75.5202 140.311 75.819 137.455 76.3281C137.367 80.0247 137.4 82.9134 137.555 84.9941C139.967 84.7064 142.281 84.4518 144.494 84.2305C146.708 84.0091 148.224 83.9095 149.043 83.9316C151.013 83.9759 151.954 84.806 151.865 86.4219C151.799 88.0378 151.389 89.1667 150.637 89.8086C150.039 90.6276 148.49 91.2695 145.988 91.7344C143.509 92.1992 141.03 92.5312 138.551 92.7305C139.082 96.25 139.602 98.873 140.111 100.6C140.532 100.577 140.997 100.544 141.506 100.5C142.037 100.456 142.635 100.4 143.299 100.334C145.889 100.135 148.722 99.8138 151.799 99.3711C154.876 98.9284 157.465 98.375 159.568 97.7109C159.79 97.6667 160.011 97.6003 160.232 97.5117C160.476 97.4232 160.708 97.3346 160.93 97.2461C161.461 97.1133 161.926 97.0247 162.324 96.9805C163.188 96.9362 163.807 97.2793 164.184 98.0098C164.56 98.7181 164.792 99.5592 164.881 100.533C164.992 101.419 164.726 102.426 164.084 103.555C163.708 104.197 163.055 104.772 162.125 105.281C161.505 105.613 160.653 105.934 159.568 106.244C157.93 106.731 155.861 107.141 153.359 107.473C150.858 107.805 148.279 108.037 145.623 108.17C144.007 108.281 141.904 108.413 139.314 108.568C136.725 108.701 134.777 108.502 133.471 107.971C132.519 107.594 131.766 106.964 131.213 106.078C130.682 105.193 130.25 104.329 129.918 103.488C129.254 101.872 128.678 99.7917 128.191 97.2461C127.727 94.6784 127.361 92.0332 127.096 89.3105C126.852 86.5658 126.73 83.9206 126.73 81.375C126.73 78.8294 126.896 76.7487 127.229 75.1328C127.516 73.694 127.904 72.5319 128.391 71.6465C128.767 70.9603 129.287 70.4622 129.951 70.1523ZM174.522 99.4375C174.743 99.1276 175.009 98.8288 175.319 98.541C175.651 98.2311 175.961 97.9323 176.248 97.6445C178.75 95.0326 181.583 91.834 184.748 88.0488C187.914 84.2637 190.271 79.903 191.821 74.9668C189.275 75.5202 185.755 76.0846 181.262 76.6602C176.791 77.2357 174.068 77.1029 173.094 76.2617C172.43 75.7083 171.854 74.668 171.367 73.1406C170.903 71.5911 171.5 70.584 173.16 70.1191C173.758 69.9642 174.987 69.7318 176.846 69.4219C178.24 69.2005 180.177 68.9238 182.656 68.5918C183.697 68.4811 184.748 68.3594 185.811 68.2266C186.873 68.0938 187.892 67.972 188.865 67.8613C190.836 67.6621 192.507 67.4297 193.879 67.1641C195.274 66.8984 196.867 67.1309 198.66 67.8613C199.015 67.9941 199.457 68.1934 199.989 68.459C201.671 69.3444 202.645 70.3184 202.91 71.3809C203.198 72.4434 203.143 73.8822 202.744 75.6973C202.169 78.2871 200.841 81.5964 198.76 85.625C196.679 89.6315 192.883 94.4349 187.371 100.035C193.636 98.9948 198.14 97.8659 200.885 96.6484C201.306 96.4714 201.737 96.2832 202.18 96.084C202.645 95.8626 203.099 95.7077 203.541 95.6191C205.224 95.3314 206.153 96.1615 206.33 98.1094C206.507 100.057 206.408 101.485 206.031 102.393C205.677 103.212 205.08 103.876 204.239 104.385C203.42 104.894 202.612 105.303 201.815 105.613C198.694 106.919 195.019 107.794 190.791 108.236C186.586 108.679 182.911 108.768 179.768 108.502C178.329 108.391 177.2 108.17 176.381 107.838C175.164 107.373 174.323 106.078 173.858 103.953C173.393 101.828 173.614 100.323 174.522 99.4375ZM217.764 106.344C217.012 106.211 216.436 106.056 216.038 105.879C215.396 105.613 214.875 105.137 214.477 104.451C213.946 103.588 213.514 102.426 213.182 100.965C212.784 99.349 212.496 97.235 212.319 94.623C212.142 91.9889 212.064 89.2552 212.086 86.4219C212.131 83.5885 212.286 80.8438 212.551 78.1875C212.839 75.5091 213.237 73.3066 213.747 71.5801C213.968 70.6947 214.3 69.7871 214.743 68.8574C215.208 67.9056 215.872 67.1862 216.735 66.6992C217.2 66.4557 217.808 66.2565 218.561 66.1016C219.314 65.9245 220.265 65.8691 221.416 65.9355C222.568 65.9798 223.586 66.2012 224.471 66.5996C225.357 66.9759 225.788 67.6068 225.766 68.4922C225.744 68.9792 225.644 69.4772 225.467 69.9863C225.312 70.4954 225.168 70.9714 225.036 71.4141C223.885 75.1328 223.143 79.3496 222.811 84.0645C222.501 88.7793 222.523 93.959 222.877 99.6035C225.556 99.9355 228.323 100.046 231.178 99.9355C234.034 99.8027 236.878 99.36 239.711 98.6074C240.11 98.4967 240.53 98.375 240.973 98.2422C241.416 98.1094 241.859 98.043 242.301 98.043C243.873 98.043 244.57 99.0169 244.393 100.965C244.238 102.913 243.917 104.296 243.43 105.115C242.987 105.846 242.346 106.388 241.504 106.742C240.663 107.096 239.855 107.373 239.081 107.572C236.048 108.281 232.573 108.502 228.655 108.236C224.759 107.949 221.405 107.395 218.594 106.576C218.439 106.532 218.295 106.499 218.163 106.477C218.03 106.432 217.897 106.388 217.764 106.344ZM251.842 84.7617C252.551 83.3451 253.337 81.9837 254.2 80.6777C255.085 79.3496 256.115 78.1211 257.288 76.9922C257.775 76.4831 258.273 76.0072 258.782 75.5645C261.903 72.7754 265.456 70.8496 269.44 69.7871C272.871 68.8574 276.158 68.8464 279.301 69.7539C280.829 70.1966 282.334 71.0046 283.817 72.1777C285.3 73.3509 286.429 74.6458 287.204 76.0625C287.691 76.9922 288.045 77.9883 288.266 79.0508C288.488 80.0911 288.654 81.1204 288.764 82.1387C289.052 85.7246 288.731 88.9674 287.801 91.8672C287.204 93.6159 286.352 95.3203 285.245 96.9805C284.138 98.6185 282.987 100.09 281.792 101.396C279.999 103.367 277.951 105.027 275.649 106.377C273.347 107.705 270.868 108.502 268.212 108.768C265.533 108.989 262.943 108.668 260.442 107.805C258.538 107.141 256.757 106.222 255.096 105.049C253.458 103.854 252.197 102.337 251.311 100.5C250.47 98.707 249.994 96.6152 249.884 94.2246C249.751 90.7715 250.404 87.6172 251.842 84.7617ZM260.509 89.3438C260.176 91.5573 261.062 94.0475 263.165 96.8145C265.268 99.5592 267.691 100.5 270.436 99.6367C272.207 99.0612 273.369 98.0872 273.923 96.7148C274.498 95.3203 274.664 93.793 274.421 92.1328C274.133 90.2734 273.314 88.6465 271.964 87.252C270.613 85.8574 269.152 84.9388 267.581 84.4961C266.009 84.0312 264.526 84.153 263.132 84.8613C261.737 85.5697 260.863 87.0638 260.509 89.3438Z" fill="white"/>
</svg>
