<svg width="74" height="74" viewBox="0 0 74 74" fill="none" xmlns="http://www.w3.org/2000/svg">
<circle cx="37" cy="37" r="37" fill="#49BD8A"/>
<g clip-path="url(#clip0_211_14)">
<path d="M28.3564 20.1094C27.8232 20.2392 27.0713 20.6152 26.6475 20.9639C26.0459 21.4629 25.4375 22.2695 25.2803 22.7822L25.2393 22.9394H31.8564C37.5986 22.9394 38.5352 22.9531 38.8838 23.042C39.957 23.3223 40.8594 24.2246 41.1396 25.2978C41.2969 25.9062 41.2969 36.2422 41.1396 36.8506C40.9893 37.4043 40.7295 37.8623 40.3057 38.293C39.9229 38.6826 39.6084 38.874 38.9932 39.0791C38.6377 39.2021 38.2959 39.209 31.7607 39.209H24.8975L24.918 45.2109C24.9385 50.6797 24.9521 51.2402 25.0615 51.6162C25.4512 52.956 26.2988 53.9814 27.4678 54.5557C28.4248 55.0205 27.8301 55 38.3438 55H47.8594L48.3926 54.8428C49.8828 54.4121 50.9834 53.332 51.5234 51.7598C51.667 51.3428 51.667 51.3017 51.6875 40.043L51.7012 28.75H48.8164C47.2236 28.75 45.7402 28.7226 45.5215 28.6816C44.4414 28.5039 43.5938 27.6973 43.3682 26.6445C43.3203 26.4053 43.293 25.209 43.293 23.1445V20L36.0332 20.0068C29.9424 20.0137 28.6982 20.0273 28.3564 20.1094Z" fill="black"/>
<path d="M45.2754 23.4453V26.3506L45.4395 26.542L45.6035 26.7334L48.3857 26.7539C50.6348 26.7676 51.1543 26.7539 51.1133 26.6855C51.0449 26.5762 45.3369 20.5469 45.3027 20.5469C45.2891 20.5469 45.2754 21.8525 45.2754 23.4453Z" fill="black"/>
<path d="M20.3707 24.9492C19.9401 25.1475 19.5504 25.5986 19.4205 26.043C19.2633 26.5625 19.2701 35.4629 19.4274 35.9893C19.5572 36.4404 19.9264 36.8574 20.3776 37.0625L20.7194 37.2266H29.2301C37.3854 37.2266 37.7545 37.2197 38.0211 37.0967C38.3697 36.9395 38.732 36.584 38.9098 36.2285C39.0328 35.9756 39.0397 35.75 39.0602 31.0811L39.0738 26.207L38.9166 25.8516C38.7115 25.4141 38.4518 25.1543 38.0143 24.9492L37.6725 24.7852H29.1959H20.7194L20.3707 24.9492Z" fill="black"/>
<path d="M21.9717 32.6328C21.7529 32.6328 21.6436 32.4756 21.6436 32.168V30.1172C21.6436 29.8232 21.7461 29.6729 21.9512 29.6729C22.0742 29.6729 22.1904 29.7412 22.2998 29.8848L23.5166 31.498V30.1377C23.5166 29.8232 23.626 29.666 23.8447 29.666C24.0635 29.666 24.1729 29.8232 24.1729 30.1377V32.2432C24.1729 32.5166 24.0703 32.6533 23.8721 32.6533C23.7422 32.6533 23.6123 32.5713 23.4961 32.4141L22.2998 30.835V32.168C22.2998 32.4756 22.1904 32.6328 21.9717 32.6328Z" fill="#55A17D"/>
<path d="M24.7607 31.5186C24.7607 31.1904 24.8633 30.917 25.0615 30.6982C25.2666 30.4795 25.5264 30.3701 25.8477 30.3701C26.1758 30.3701 26.4355 30.4795 26.6338 30.6982C26.832 30.917 26.9346 31.1904 26.9346 31.5186C26.9346 31.8467 26.8389 32.1133 26.6406 32.332C26.4355 32.5576 26.1758 32.667 25.8477 32.667C25.5264 32.667 25.2666 32.5576 25.0547 32.332C24.8564 32.1064 24.7607 31.8398 24.7607 31.5186ZM25.4238 31.5117C25.4238 31.6553 25.458 31.7783 25.5264 31.8809C25.6016 31.9971 25.7109 32.0586 25.8477 32.0586C25.9912 32.0586 26.0937 31.9971 26.1758 31.8809C26.2441 31.7852 26.2783 31.6621 26.2783 31.5117C26.2783 31.3682 26.2441 31.2451 26.1758 31.1494C26.1006 31.0332 25.9912 30.9717 25.8545 30.9717C25.7109 30.9717 25.6084 31.0264 25.5264 31.1426C25.4512 31.2451 25.4238 31.3682 25.4238 31.5117Z" fill="#55A17D"/>
<path d="M28.8486 30.5479H28.8691V29.96C28.8691 29.6455 28.9717 29.4883 29.1768 29.4883C29.3887 29.4883 29.4912 29.6455 29.4912 29.96V32.1611C29.4912 32.4756 29.3887 32.6328 29.1768 32.6328C29.0469 32.6328 28.9443 32.5645 28.8691 32.4209C28.7393 32.5645 28.5615 32.6396 28.3428 32.6396C28.0625 32.6396 27.8232 32.5166 27.625 32.2773C27.4473 32.0518 27.3584 31.792 27.3584 31.498C27.3584 31.1973 27.4473 30.9375 27.625 30.7188C27.8096 30.4795 28.0557 30.3633 28.3496 30.3633C28.5342 30.3633 28.7051 30.4248 28.8486 30.5479ZM28.8691 31.5322V31.416C28.8691 31.1084 28.7256 30.9512 28.4385 30.9512C28.3018 30.9512 28.1924 31.0127 28.1104 31.1289C28.042 31.2314 28.0078 31.3545 28.0078 31.498C28.0078 31.6416 28.042 31.7646 28.1104 31.8604C28.1924 31.9766 28.2949 32.0313 28.4316 32.0313C28.5752 32.0313 28.6777 31.9834 28.7598 31.8809C28.835 31.7988 28.8691 31.6758 28.8691 31.5322Z" fill="#55A17D"/>
<path d="M30.6943 31.6963C30.708 31.8193 30.7559 31.915 30.8516 31.9834C30.9404 32.0518 31.0498 32.0859 31.1797 32.0859C31.2891 32.0859 31.4189 32.0518 31.5693 31.9834C31.7197 31.915 31.8154 31.8809 31.8564 31.8809C32.0273 31.8809 32.1094 31.9629 32.1094 32.1338C32.1094 32.1953 32.0889 32.2637 32.041 32.3252C31.959 32.4414 31.8223 32.5303 31.6377 32.5918C31.4805 32.6465 31.3164 32.6738 31.1523 32.6738C30.8379 32.6738 30.5713 32.5645 30.3594 32.3457C30.1475 32.127 30.0449 31.8604 30.0449 31.5391C30.0449 31.2246 30.1475 30.9512 30.3457 30.7256C30.5508 30.5 30.8037 30.3906 31.125 30.3906C31.2822 30.3906 31.4258 30.418 31.5488 30.4795C31.7334 30.5615 31.8838 30.6914 32 30.8555C32.1162 31.0195 32.1777 31.2041 32.1777 31.4023C32.1777 31.5049 32.1367 31.5869 32.0615 31.6416C31.9932 31.6895 31.9111 31.7168 31.8018 31.7168H30.6943V31.6963ZM30.6875 31.2725H31.5352C31.5283 31.1631 31.4873 31.0674 31.4053 30.999C31.3301 30.9307 31.2344 30.8896 31.1182 30.8896C31.002 30.8896 30.9062 30.9238 30.8311 30.9922C30.7559 31.0674 30.708 31.1562 30.6875 31.2725Z" fill="#55A17D"/>
<path d="M32.5605 32.2568C32.5605 32.1543 32.5947 32.0654 32.6699 31.9902C32.7383 31.915 32.8271 31.8809 32.9297 31.8809C33.0322 31.8809 33.1211 31.915 33.1963 31.9902C33.2646 32.0654 33.2988 32.1543 33.2988 32.2568C33.2988 32.3594 33.2646 32.4482 33.1894 32.5234C33.1211 32.5986 33.0322 32.6328 32.9297 32.6328C32.8271 32.6328 32.7383 32.5986 32.6699 32.5234C32.5947 32.4482 32.5605 32.3662 32.5605 32.2568Z" fill="#55A17D"/>
<path d="M33.8115 29.8574C33.8115 29.7549 33.8457 29.666 33.9209 29.5977C33.9961 29.5293 34.085 29.4883 34.1875 29.4883C34.29 29.4883 34.3789 29.5225 34.4473 29.5977C34.5156 29.666 34.5498 29.7549 34.5498 29.8574C34.5498 29.96 34.5156 30.0488 34.4473 30.1172C34.3789 30.1855 34.29 30.2266 34.1875 30.2266C34.085 30.2266 33.9961 30.1924 33.9209 30.124C33.8457 30.0557 33.8115 29.9668 33.8115 29.8574ZM34.502 33.0293C34.502 33.3438 34.3994 33.501 34.1875 33.501C33.9756 33.501 33.8662 33.3438 33.8662 33.0293V30.8691C33.8662 30.5615 33.9756 30.4043 34.1875 30.4043C34.3994 30.4043 34.502 30.5615 34.502 30.8691V33.0293Z" fill="#55A17D"/>
<path d="M35.8008 32.6602C35.4453 32.6602 35.1992 32.5645 35.0693 32.3662C35.0283 32.3047 35.0078 32.25 35.0078 32.1816C35.0078 31.9902 35.1104 31.8945 35.3086 31.8945C35.3701 31.8945 35.4453 31.9287 35.5547 31.9902C35.6572 32.0518 35.7598 32.0859 35.8486 32.0859C35.9648 32.0859 36.0264 32.0449 36.0264 31.9561C36.0264 31.9014 35.9443 31.833 35.7734 31.7646C35.541 31.6621 35.3906 31.5801 35.3154 31.5254C35.1514 31.4023 35.0625 31.252 35.0625 31.0674C35.0625 30.8555 35.1445 30.6846 35.3086 30.5547C35.459 30.4316 35.6504 30.3701 35.8623 30.3701C35.999 30.3701 36.1289 30.3906 36.2451 30.4316C36.3887 30.4795 36.498 30.5547 36.5596 30.6504C36.5938 30.7051 36.6143 30.7598 36.6143 30.8145C36.6143 30.8896 36.5869 30.958 36.5391 31.0059C36.4912 31.0605 36.4229 31.0811 36.3477 31.0811C36.293 31.0811 36.2109 31.0537 36.0947 31.0059C35.9785 30.958 35.8965 30.9307 35.835 30.9307C35.7393 30.9307 35.6914 30.9648 35.6914 31.04C35.6914 31.1016 35.7324 31.1426 35.8145 31.1768C35.9922 31.2451 36.1221 31.2998 36.1973 31.334C36.3477 31.4092 36.457 31.4844 36.5322 31.5664C36.6211 31.6621 36.6621 31.7852 36.6621 31.9287C36.6621 32.1543 36.5732 32.332 36.3887 32.4687C36.2246 32.5986 36.0264 32.6602 35.8008 32.6602Z" fill="#55A17D"/>
<path d="M33.9414 42.1484C34.0918 42.2988 34.1192 42.5586 34.0098 42.7636C33.9688 42.8457 33.7774 42.9414 33.5655 43.0097C33.3604 43.0644 33.1621 43.167 33.128 43.2285C33.0938 43.29 33.0528 43.9599 33.0391 44.7119C33.0117 46.1269 32.9571 46.4209 32.6631 46.7422C32.5606 46.8584 32.5606 46.872 32.6631 46.9882C32.9571 47.3095 33.0117 47.6035 33.0391 49.0185C33.0528 49.7705 33.0938 50.4404 33.128 50.5019C33.1621 50.5634 33.3604 50.666 33.5655 50.7207C33.9551 50.8369 34.0781 50.9668 34.0781 51.2675C34.0781 51.8828 33.0528 51.8554 32.458 51.2334C32.0547 50.8027 32.0069 50.5976 31.9658 49.039C31.9385 48.2392 31.8975 47.5966 31.8565 47.5556C31.8223 47.5215 31.6172 47.4326 31.4121 47.3642C30.9883 47.2275 30.8516 47.0156 30.9746 46.6738C31.0225 46.5302 31.1182 46.4619 31.4121 46.3662C31.6172 46.2978 31.8223 46.209 31.8565 46.1748C31.8975 46.1338 31.9385 45.4912 31.9658 44.6914C32.0069 43.1328 32.0547 42.9277 32.458 42.497C32.9024 42.039 33.6612 41.8613 33.9414 42.1484Z" fill="#55A17D"/>
<path d="M44.0996 42.1416C44.25 42.2099 44.4688 42.374 44.5918 42.4971C44.9951 42.9277 45.043 43.1328 45.084 44.6914C45.1113 45.4912 45.1523 46.1338 45.1934 46.1748C45.2344 46.209 45.4326 46.2978 45.6377 46.3662C46.0615 46.5029 46.1982 46.7148 46.0752 47.0498C46.0273 47.2002 45.9316 47.2685 45.6377 47.3642C45.4326 47.4326 45.2344 47.5215 45.1934 47.5557C45.1523 47.5967 45.1113 48.2392 45.084 49.039C45.043 50.5976 44.9951 50.8027 44.5918 51.2334C43.9971 51.8555 42.9717 51.8828 42.9717 51.2676C42.9717 50.9668 43.0947 50.8369 43.4844 50.7207C43.6895 50.666 43.8877 50.5635 43.9219 50.5019C43.9561 50.4404 43.9971 49.7705 44.0107 49.0185C44.0381 47.6035 44.0928 47.3096 44.3867 46.9883C44.4893 46.8721 44.4893 46.8584 44.3867 46.7422C44.0928 46.4209 44.0381 46.1269 44.0107 44.7119C43.9971 43.9599 43.9561 43.29 43.9219 43.2285C43.8877 43.167 43.6895 43.0644 43.4844 43.0098C43.0947 42.8935 42.9717 42.7637 42.9717 42.4629C42.9717 42.039 43.5254 41.875 44.0996 42.1416Z" fill="#55A17D"/>
<path d="M36.6826 46.5234C36.7578 46.5986 36.8193 46.749 36.8193 46.8652C36.8193 46.9814 36.7578 47.1318 36.6826 47.207C36.6074 47.2822 36.457 47.3438 36.3408 47.3438C36.2246 47.3438 36.0742 47.2822 35.999 47.207C35.9238 47.1318 35.8623 46.9814 35.8623 46.8652C35.8623 46.749 35.9238 46.5986 35.999 46.5234C36.0742 46.4482 36.2246 46.3867 36.3408 46.3867C36.4502 46.3867 36.6074 46.4482 36.6826 46.5234Z" fill="#55A17D"/>
<path d="M38.8701 46.5234C38.9453 46.5986 39.0068 46.749 39.0068 46.8652C39.0068 46.9814 38.9453 47.1318 38.8701 47.207C38.7949 47.2822 38.6445 47.3438 38.5283 47.3438C38.4121 47.3438 38.2617 47.2822 38.1865 47.207C38.1113 47.1318 38.0498 46.9814 38.0498 46.8652C38.0498 46.749 38.1113 46.5986 38.1865 46.5234C38.2617 46.4482 38.4121 46.3867 38.5283 46.3867C38.6377 46.3867 38.7949 46.4482 38.8701 46.5234Z" fill="#55A17D"/>
<path d="M41.0576 46.5234C41.1328 46.5986 41.1943 46.749 41.1943 46.8652C41.1943 46.9814 41.1328 47.1318 41.0576 47.207C40.9824 47.2822 40.832 47.3438 40.7158 47.3438C40.5996 47.3438 40.4492 47.2822 40.374 47.207C40.2988 47.1318 40.2373 46.9814 40.2373 46.8652C40.2373 46.749 40.2988 46.5986 40.374 46.5234C40.4492 46.4482 40.5996 46.3867 40.7158 46.3867C40.8252 46.3867 40.9824 46.4482 41.0576 46.5234Z" fill="#55A17D"/>
</g>
<defs>
<clipPath id="clip0_211_14">
<rect width="35" height="35" fill="white" transform="translate(18 20)"/>
</clipPath>
</defs>
</svg>
