<?xml version="1.0" encoding="utf-8"?>
<!-- Generator: Adobe Illustrator 25.0.1, SVG Export Plug-In . SVG Version: 6.00 Build 0)  -->
<svg version="1.1" id="Слой_1" xmlns="http://www.w3.org/2000/svg" xmlns:xlink="http://www.w3.org/1999/xlink" x="0px" y="0px"
	 viewBox="0 0 74 74" style="enable-background:new 0 0 74 74;" xml:space="preserve">
<style type="text/css">
	.st0{fill:#49BD8A;}
</style>
<g>
	<circle class="st0" cx="37" cy="37.1" r="37"/>
</g>
<g>
	<g>
		<g>
			<path d="M28.5,21c-0.6,0.1-1.3,0.5-1.7,0.8c-0.6,0.5-1.2,1.3-1.3,1.8v0.2h6.4c5.6,0,6.5,0,6.8,0.1c1,0.3,1.9,1.1,2.2,2.2
				c0.2,0.6,0.2,10.6,0,11.2c-0.1,0.5-0.4,1-0.8,1.4c-0.4,0.4-0.7,0.6-1.3,0.8c-0.3,0.1-0.7,0.1-7,0.1h-6.7v5.8c0,5.3,0,5.9,0.1,6.2
				c0.4,1.3,1.3,2.3,2.4,2.9c0.9,0.4,0.3,0.4,10.6,0.4h9.2l0.5-0.2c1.4-0.4,2.5-1.5,3-3c0.1-0.4,0.1-0.4,0.2-11.4v-11h-2.8
				c-1.5,0-3,0-3.2-0.1c-1-0.2-1.9-1-2.1-2c0-0.2-0.1-1.4-0.1-3.4v-2.9h-7.1C30,20.9,28.8,20.9,28.5,21z M40.2,41
				c0.1,0.1,0.2,0.2,0.2,0.3c0,0.3-3.6,7.6-3.8,7.7c-0.3,0.2-0.8-0.1-0.8-0.4c0-0.2,3.5-7.4,3.7-7.6C39.7,40.8,40,40.9,40.2,41z
				 M35,43.8c0.2,0.2,0.2,0.3,0.2,0.5s0,0.3-0.9,0.9c-0.5,0.3-0.9,0.6-0.9,0.7c0,0,0.4,0.3,0.8,0.6c0.4,0.3,0.9,0.6,0.9,0.6
				c0.2,0.2,0.2,0.5,0,0.8c-0.3,0.4-0.4,0.4-1.8-0.6c-1.6-1-1.7-1.1-1.7-1.4c0-0.1,0-0.3,0.1-0.4c0.1-0.2,2.8-1.9,3-1.9
				C34.7,43.6,34.8,43.7,35,43.8z M43.2,44.5c1.3,0.9,1.5,1,1.5,1.4c0,0.3-0.3,0.5-1.7,1.4c-1.4,0.9-1.5,0.9-1.8,0.6
				c-0.2-0.2-0.3-0.5-0.2-0.7c0-0.1,0.5-0.4,1-0.8c0.5-0.3,0.9-0.6,0.9-0.6s-0.4-0.3-0.9-0.6c-0.5-0.3-0.9-0.6-1-0.7
				c-0.1-0.1-0.1-0.2-0.1-0.3c0-0.3,0.4-0.7,0.7-0.6C41.8,43.6,42.4,44.1,43.2,44.5z"/>
			<path d="M44.9,24.2V27l0.2,0.2l0.2,0.2H48c2.2,0,2.7,0,2.6-0.1c-0.1-0.1-5.6-6-5.6-6C44.9,21.4,44.9,22.7,44.9,24.2z"/>
			<path d="M20.7,25.7c-0.4,0.2-0.8,0.6-0.9,1.1c-0.2,0.5-0.1,9.2,0,9.7c0.1,0.4,0.5,0.8,0.9,1l0.3,0.2h8.3c7.9,0,8.3,0,8.5-0.1
				c0.3-0.2,0.7-0.5,0.9-0.8c0.1-0.2,0.1-0.5,0.1-5v-4.7l-0.2-0.3c-0.2-0.4-0.5-0.7-0.9-0.9l-0.3-0.2h-8.1h-8.2H20.7z"/>
		</g>
	</g>
</g>
<g>
	<path class="st0" d="M24.4,33.8c-0.4,0-0.5-0.2-0.5-0.7v-2.8c0-0.2,0-0.3,0.1-0.5c0.1-0.1,0.2-0.1,0.5-0.1h0.9
		c0.5,0,0.9,0.1,1.1,0.3c0.2,0.2,0.5,0.6,0.5,1s-0.1,0.8-0.4,1c-0.2,0.2-0.6,0.3-1.1,0.3h-0.6v0.6C24.9,33.6,24.7,33.8,24.4,33.8z
		 M24.9,31.6h0.4c0.5,0,0.6-0.2,0.6-0.6c0-0.3-0.2-0.5-0.6-0.5h-0.4V31.6z"/>
	<path class="st0" d="M28.4,32.1v1c0,0.5-0.1,0.7-0.5,0.7c-0.4,0-0.5-0.2-0.5-0.7v-2.8c0-0.5,0.2-0.7,0.5-0.7c0.4,0,0.5,0.2,0.5,0.7
		v0.9h1.7v-0.9c0.1-0.5,0.2-0.7,0.5-0.7s0.5,0.2,0.5,0.7v2.8c0,0.5-0.1,0.7-0.5,0.7s-0.4-0.2-0.4-0.7v-1H28.4z"/>
	<path class="st0" d="M32.3,33.8c-0.4,0-0.5-0.2-0.5-0.7v-2.8c0-0.2,0-0.3,0.1-0.5c0.1-0.1,0.2-0.1,0.5-0.1h1c0.5,0,0.9,0.1,1.1,0.3
		c0.2,0.2,0.5,0.6,0.5,1s-0.1,0.8-0.4,1c-0.2,0.2-0.6,0.3-1.1,0.3h-0.6v0.6C32.8,33.6,32.7,33.8,32.3,33.8z M32.8,31.6h0.4
		c0.5,0,0.6-0.2,0.6-0.6c0-0.3-0.2-0.5-0.6-0.5h-0.4V31.6z"/>
</g>
</svg>
