<svg width="74" height="74" viewBox="0 0 74 74" fill="none" xmlns="http://www.w3.org/2000/svg">
<circle cx="37" cy="37" r="37" fill="#49BD8A"/>
<g clip-path="url(#clip0_211_15)">
<path d="M28.3564 20.1094C27.8232 20.2392 27.0713 20.6152 26.6475 20.9639C26.0459 21.4629 25.4375 22.2695 25.2803 22.7822L25.2393 22.9394H31.8564C37.5986 22.9394 38.5352 22.9531 38.8838 23.042C39.957 23.3223 40.8594 24.2246 41.1396 25.2978C41.2969 25.9062 41.2969 36.2422 41.1396 36.8506C40.9893 37.4043 40.7295 37.8623 40.3057 38.293C39.9229 38.6826 39.6084 38.874 38.9932 39.0791C38.6377 39.2021 38.2959 39.209 31.7607 39.209H24.8975L24.918 45.2109C24.9385 50.6797 24.9521 51.2402 25.0615 51.6162C25.4512 52.956 26.2988 53.9814 27.4678 54.5557C28.4248 55.0205 27.8301 55 38.3438 55H47.8594L48.3926 54.8428C49.8828 54.4121 50.9834 53.332 51.5234 51.7598C51.667 51.3428 51.667 51.3017 51.6875 40.043L51.7012 28.75H48.8164C47.2236 28.75 45.7402 28.7226 45.5215 28.6816C44.4414 28.5039 43.5938 27.6973 43.3682 26.6445C43.3203 26.4053 43.293 25.209 43.293 23.1445V20L36.0332 20.0068C29.9424 20.0137 28.6982 20.0273 28.3564 20.1094Z" fill="black"/>
<path d="M45.2754 23.4453V26.3506L45.4395 26.542L45.6035 26.7334L48.3857 26.7539C50.6348 26.7676 51.1543 26.7539 51.1133 26.6855C51.0449 26.5762 45.3369 20.5469 45.3027 20.5469C45.2891 20.5469 45.2754 21.8525 45.2754 23.4453Z" fill="black"/>
<path d="M20.3707 24.9492C19.9401 25.1475 19.5504 25.5986 19.4205 26.043C19.2633 26.5625 19.2701 35.4629 19.4274 35.9893C19.5572 36.4404 19.9264 36.8574 20.3776 37.0625L20.7194 37.2266H29.2301C37.3854 37.2266 37.7545 37.2197 38.0211 37.0967C38.3697 36.9395 38.7321 36.584 38.9098 36.2285C39.0328 35.9756 39.0397 35.75 39.0602 31.0811L39.0739 26.207L38.9166 25.8516C38.7115 25.4141 38.4518 25.1543 38.0143 24.9492L37.6725 24.7852H29.1959H20.7194L20.3707 24.9492Z" fill="black"/>
<path d="M25.6836 34.0889C25.2734 34.0889 25.0684 33.7949 25.0684 33.2139V29.4609C25.0684 29.1396 25.1299 28.9141 25.2529 28.7842C25.376 28.6543 25.6016 28.5928 25.9229 28.5928H27.0439C27.6455 28.5928 28.124 28.75 28.4727 29.0645C28.8486 29.3926 29.0332 29.8506 29.0332 30.4453C29.0332 31.0332 28.8623 31.4844 28.5273 31.8057C28.1924 32.127 27.7275 32.291 27.1396 32.291H26.3057V33.2207C26.2988 33.8018 26.0938 34.0889 25.6836 34.0889ZM26.2988 31.1631H26.832C27.3994 31.1631 27.6797 30.9238 27.6797 30.4385C27.6797 29.9668 27.3994 29.7275 26.832 29.7275H26.2988V31.1631Z" fill="#55A17D"/>
<path d="M33.251 28.5244C33.3945 28.5244 33.5176 28.5791 33.627 28.6953C33.7363 28.8047 33.791 28.9346 33.791 29.0781C33.791 29.2217 33.6953 29.4336 33.4971 29.707L32.2461 31.4775V33.2207C32.2461 33.8018 32.041 34.0889 31.6309 34.0889C31.2207 34.0889 31.0156 33.8018 31.0156 33.2207V31.4707L29.7578 29.7002C29.5732 29.4404 29.4844 29.2354 29.4844 29.0713C29.4844 28.9141 29.5459 28.7773 29.6621 28.6748C29.7783 28.5723 29.9219 28.5176 30.0859 28.5176C30.2842 28.5176 30.4961 28.6748 30.7217 28.9961L31.6514 30.3291L32.5879 28.9893C32.7998 28.6816 33.0186 28.5244 33.251 28.5244Z" fill="#55A17D"/>
<path d="M38.7197 43.2969C39.0342 43.3857 39.1846 43.5908 39.1846 43.9121C39.1846 44.2334 39.0342 44.4385 38.7197 44.5273C38.3779 44.6162 33.292 44.6162 32.9502 44.5273C32.6357 44.4385 32.4854 44.2334 32.4854 43.9121C32.4854 43.5976 32.6357 43.3857 32.916 43.3037C33.2305 43.2148 38.4053 43.208 38.7197 43.2969Z" fill="#55A17D"/>
<path d="M44.1885 46.0312C44.5029 46.1201 44.6533 46.3252 44.6533 46.6465C44.6533 46.9677 44.5029 47.1728 44.1885 47.2617C43.8398 47.3574 33.2988 47.3574 32.9502 47.2617C32.6357 47.1728 32.4854 46.9677 32.4854 46.6465C32.4854 46.332 32.6357 46.1201 32.916 46.0381C33.2373 45.9492 43.874 45.9424 44.1885 46.0312Z" fill="#55A17D"/>
<path d="M44.1885 48.7656C44.5029 48.8545 44.6533 49.0595 44.6533 49.3808C44.6533 49.7021 44.5029 49.9072 44.1885 49.9961C43.8398 50.0918 33.2988 50.0918 32.9502 49.9961C32.6357 49.9072 32.4854 49.7021 32.4854 49.3808C32.4854 49.0664 32.6357 48.8545 32.916 48.7724C33.2373 48.6836 43.874 48.6767 44.1885 48.7656Z" fill="#55A17D"/>
</g>
<defs>
<clipPath id="clip0_211_15">
<rect width="35" height="35" fill="white" transform="translate(18 20)"/>
</clipPath>
</defs>
</svg>
