<svg width="74" height="74" viewBox="0 0 74 74" fill="none" xmlns="http://www.w3.org/2000/svg">
<circle cx="37" cy="37" r="37" fill="#E7A7D7"/>
<path d="M35.6474 21.0584C29.8916 21.3684 24.4669 23.8059 20.1906 27.9907C19.1973 28.9699 19 29.3222 19 30.1817C19 31.0764 19.0916 31.2173 21.2192 33.4506C22.2266 34.5073 23.1636 35.4654 23.3045 35.5711C23.6849 35.874 24.1851 36.0149 24.7346 35.9797C25.3264 35.9374 25.7843 35.705 26.2564 35.2189C27.0947 34.3453 28.5601 33.2251 29.793 32.5136C30.6665 32.0063 31.0822 31.4709 31.1808 30.71C31.209 30.5339 31.3358 29.5406 31.4767 28.4909C31.6106 27.4482 31.7374 26.5817 31.7515 26.5676C31.8712 26.4478 34.0411 25.9265 35.0626 25.7715C35.8798 25.6447 38.1131 25.6447 38.9374 25.7715C40.1491 25.9476 42.2838 26.483 42.2838 26.6098C42.2838 26.638 42.3824 27.3566 42.4951 28.2091C42.6149 29.0615 42.7417 30.0408 42.7769 30.386C42.9037 31.492 43.2278 31.95 44.3198 32.5981C45.4117 33.2462 46.2924 33.9014 47.2575 34.8032C47.8282 35.3386 48.3072 35.719 48.5397 35.8318C49.216 36.1488 50.1178 36.0431 50.7166 35.5711C50.8153 35.4936 51.7382 34.5496 52.7597 33.4717C54.9084 31.2102 55 31.0764 55 30.1817C55 29.3222 54.8027 28.9699 53.8094 27.9907C49.998 24.2568 45.3695 21.9601 40.2055 21.2345C39.4939 21.1359 37.2043 20.9809 36.7886 21.002C36.69 21.002 36.1757 21.0302 35.6474 21.0584Z" fill="black"/>
<path d="M29.6943 33.1335C28.7362 33.366 27.8556 34.0212 27.3272 34.8877C26.7636 35.8035 22.29 44.2646 22.1562 44.6591C22.0434 45.0114 22.0294 45.3284 22.0294 48.4282V51.8098L22.2548 52.2818C22.6493 53.1131 23.3609 53.7331 24.2133 53.9656C24.5092 54.0501 26.5945 54.0642 37 54.0642C47.4055 54.0642 49.4908 54.0501 49.7867 53.9656C50.6391 53.7331 51.3507 53.1131 51.7452 52.2818L51.9706 51.8098V48.4282C51.9706 45.3284 51.9566 45.0114 51.8438 44.6591C51.71 44.2646 47.2364 35.8035 46.6728 34.8877C46.1303 33.993 45.1793 33.3167 44.2 33.1123C43.6294 32.9926 30.1875 33.0137 29.6943 33.1335ZM32.935 37.6212C33.5761 37.7973 34.0129 38.4806 33.9566 39.1992C33.8297 40.7069 31.7022 41.038 31.1174 39.6431C30.6313 38.4736 31.7022 37.2759 32.935 37.6212ZM37.4438 37.6212C37.8102 37.7198 38.2329 38.1214 38.3808 38.4947C38.5499 38.9527 38.4935 39.5092 38.2258 39.8896C37.4297 41.0169 35.6474 40.566 35.5346 39.1992C35.4431 38.1073 36.3871 37.3253 37.4438 37.6212ZM41.9526 37.6212C42.5937 37.7973 43.0305 38.4806 42.9742 39.1992C42.8474 40.7069 40.7198 41.038 40.135 39.6431C39.6489 38.4736 40.7198 37.2759 41.9526 37.6212ZM32.935 42.13C33.5761 42.3061 34.0129 42.9895 33.9566 43.708C33.8297 45.2157 31.7022 45.5468 31.1174 44.1519C30.6313 42.9824 31.7022 41.7848 32.935 42.13ZM37.4438 42.13C37.8102 42.2286 38.2329 42.6302 38.3808 43.0035C38.5499 43.4615 38.4935 44.018 38.2258 44.3985C37.4297 45.5257 35.6474 45.0748 35.5346 43.708C35.4431 42.6161 36.3871 41.8341 37.4438 42.13ZM41.9526 42.13C42.5937 42.3061 43.0305 42.9895 42.9742 43.708C42.8474 45.2157 40.7198 45.5468 40.135 44.1519C39.6489 42.9824 40.7198 41.7848 41.9526 42.13ZM32.935 46.6388C33.5761 46.8149 34.0129 47.4983 33.9566 48.2169C33.8297 49.7245 31.7022 50.0556 31.1174 48.6607C30.6313 47.4912 31.7022 46.2936 32.935 46.6388ZM37.4438 46.6388C37.8102 46.7374 38.2329 47.139 38.3808 47.5123C38.5499 47.9703 38.4935 48.5268 38.2258 48.9073C37.4297 50.0345 35.6474 49.5836 35.5346 48.2169C35.4431 47.1249 36.3871 46.3429 37.4438 46.6388ZM41.9526 46.6388C42.5937 46.8149 43.0305 47.4983 42.9742 48.2169C42.8474 49.7245 40.7198 50.0556 40.135 48.6607C39.6489 47.4912 40.7198 46.2936 41.9526 46.6388Z" fill="black"/>
</svg>
