<svg width="40" height="34" viewBox="0 0 40 34" fill="none" xmlns="http://www.w3.org/2000/svg">
<path d="M19.0899 7.43905C1.04539 14.4352 0 14.8834 0 15.8188C0 16.7542 0.401676 16.9574 4.54204 18.4218L9.08407 20.0086L11.7774 25.4179C13.2656 28.4274 14.6303 30.8689 14.8723 30.8689C15.0732 30.8689 16.3194 29.9335 17.6043 28.8365C18.8891 27.6979 20.0555 26.8041 20.1353 26.8041C20.2563 26.8041 22.2261 28.2685 24.5975 30.0586C29.2194 33.597 30.6665 34.0843 31.7119 32.3776C31.9925 31.8903 33.9237 24.6493 35.9732 16.3112C38.9884 3.98659 39.5909 1.06046 39.1892 0.570599C38.9086 0.244896 38.5867 -3.05176e-05 38.4245 -3.05176e-05C38.3035 0.0390549 29.5799 3.37426 19.0899 7.43905ZM30.5455 8.41616C30.064 8.78095 26.3253 12.1162 22.1463 15.7771L14.6303 22.4892L14.8311 25.1339L15.0732 27.8177L13.1446 23.7503L11.1749 19.6829L19.0513 14.8833C23.3925 12.2386 27.7337 9.55482 28.7379 8.90341C30.7463 7.64489 31.7917 7.31919 30.5455 8.41616Z" fill="white"/>
</svg>
