<?xml version="1.0" encoding="utf-8"?>
<!-- Generator: Adobe Illustrator 25.0.1, SVG Export Plug-In . SVG Version: 6.00 Build 0)  -->
<svg version="1.1" id="Слой_1" xmlns="http://www.w3.org/2000/svg" xmlns:xlink="http://www.w3.org/1999/xlink" x="0px" y="0px"
	 viewBox="0 0 74 74" style="enable-background:new 0 0 74 74;" xml:space="preserve">
<style type="text/css">
	.st0{fill:#49BD8A;}
</style>
<g>
	<circle class="st0" cx="37" cy="37.1" r="37"/>
</g>
<path d="M51.7,29.8H24.2c-1.4,0-2.6-1.2-2.6-2.6v-2.9c0-1.4,1.2-2.6,2.6-2.6h27.5c1.4,0,2.6,1.2,2.6,2.6v2.9
	C54.3,28.6,53.1,29.8,51.7,29.8z"/>
<path d="M27.5,54.4h-3.8c-1.2,0-2.1-0.9-2.1-2.1V34.7c0-1.2,0.9-2.1,2.1-2.1h3.8c1.2,0,2.1,0.9,2.1,2.1v17.6
	C29.6,53.5,28.7,54.4,27.5,54.4z"/>
<path d="M50.8,54.4H35.9c-1.9,0-3.5-1.6-3.5-3.5V36.1c0-1.9,1.6-3.5,3.5-3.5h14.9c1.9,0,3.5,1.6,3.5,3.5V51
	C54.3,52.9,52.7,54.4,50.8,54.4z"/>
</svg>
